<svg width="48" height="48" viewBox="0 0 48 48" fill="none" xmlns="http://www.w3.org/2000/svg">
<g clip-path="url(#clip0)">
<path d="M12.4258 27.7561L17.3623 33.8114L18.4576 32.9178C20.0166 31.6449 21.9857 30.9436 24.0006 30.9436C26.0155 30.9436 27.9846 31.6449 29.5436 32.9178L30.6389 33.8114L35.5754 27.7561C32.2828 25.1886 28.1886 23.7798 24.0006 23.7798C19.8126 23.7798 15.7184 25.1886 12.4258 27.7561Z" fill="#0D417B"/>
<path d="M6.17773 20.0942L10.4763 25.3651L10.64 25.5658C14.4365 22.5892 19.1632 20.9548 24.0001 20.9548C28.837 20.9548 33.5637 22.5892 37.3602 25.5658L37.5239 25.3651L41.8225 20.0942C36.7688 16.0989 30.4575 13.9053 24.0001 13.9053C17.5427 13.9053 11.2314 16.0989 6.17773 20.0942Z" fill="#0D417B"/>
<path d="M46.9069 11.6246C43.7402 9.03918 40.1953 7.02429 36.3695 5.63525C32.4111 4.19751 28.2495 3.46875 24 3.46875C19.7505 3.46875 15.5889 4.19751 11.6305 5.63525C7.80469 7.02429 4.25977 9.03918 1.09314 11.6246L0 12.5175L4.39233 17.9041C7.06201 15.7866 10.0298 14.1266 13.2206 12.9683C16.6707 11.7151 20.2976 11.0804 24 11.0804C27.7024 11.0804 31.3293 11.7151 34.7794 12.9683C37.9702 14.1266 40.938 15.7866 43.6077 17.9041L48 12.5175L46.9069 11.6246Z" fill="#0D417B"/>
<path d="M24.0006 34.3804C21.1786 34.3804 18.8828 36.6761 18.8828 39.4982C18.8828 42.3202 21.1786 44.616 24.0006 44.616C26.8226 44.616 29.1184 42.3202 29.1184 39.4982C29.1184 36.6761 26.8226 34.3804 24.0006 34.3804Z" fill="#0D417B"/>
</g>
<defs>
<clipPath id="clip0">
<rect width="48" height="48" fill="white"/>
</clipPath>
</defs>
</svg>
