<svg width="48" height="48" viewBox="0 0 48 48" fill="none" xmlns="http://www.w3.org/2000/svg">
<g clip-path="url(#clip0)">
<path d="M37.8147 12.371C38.5121 12.371 38.7086 11.428 38.0799 11.1431L13.5316 0.25893C12.0384 -0.409052 10.2801 0.25893 9.6121 1.76189L1.01674 21.0351C0.34876 22.5283 1.01674 24.2866 2.5197 24.9546L7.47063 27.0961C8.08949 27.3711 8.79677 26.9193 8.79677 26.2415V18.0587C8.79677 14.9251 11.341 12.3808 14.4746 12.3808H37.8147V12.371Z" fill="#0D417B"/>
<path d="M44.2392 15.043H14.4649C12.8048 15.043 11.459 16.3888 11.459 18.0489V39.0805C11.459 40.7406 12.8048 42.0864 14.4649 42.0864H18.463C18.3647 41.497 18.3156 40.8978 18.3156 40.2888C18.3156 39.6011 18.3844 38.9331 18.5023 38.275H15.2802V28.2061H43.4337V38.2652H40.2019C40.3197 38.9233 40.3885 39.5913 40.3885 40.2789C40.3885 40.888 40.3394 41.4872 40.2411 42.0766H44.2392C45.8993 42.0766 47.2451 40.7308 47.2451 39.0707V18.0489C47.2451 16.3888 45.8993 15.043 44.2392 15.043ZM43.4337 22.0077H15.2802V18.8544H43.4337V22.0077Z" fill="#0D417B"/>
<path d="M29.3578 32.5581C25.0945 32.5581 21.6367 36.0159 21.6367 40.2792C21.6367 44.5425 25.0945 48.0003 29.3578 48.0003C33.6211 48.0003 37.0789 44.5425 37.0789 40.2792C37.0789 36.0159 33.6211 32.5581 29.3578 32.5581ZM31.5779 43.3244C31.2439 43.737 30.8018 44.012 30.291 44.1496C30.0651 44.2085 29.9668 44.3264 29.9767 44.5621C29.9865 44.7881 29.9767 45.014 29.9767 45.2498C29.9767 45.456 29.8686 45.5641 29.6722 45.5641C29.4266 45.5739 29.181 45.5739 28.9354 45.5641C28.7193 45.5641 28.6211 45.4364 28.6211 45.2301C28.6211 45.0631 28.6211 44.8961 28.6211 44.7291C28.6211 44.3657 28.6014 44.346 28.2478 44.2871C27.7959 44.2183 27.3539 44.1103 26.9413 43.9138C26.6171 43.7566 26.5778 43.678 26.6761 43.3342C26.7448 43.0788 26.8136 42.8234 26.8922 42.5778C26.9806 42.2831 27.0592 42.2537 27.3342 42.3912C27.7959 42.627 28.2772 42.7645 28.7881 42.8234C29.1122 42.8627 29.4364 42.8332 29.7409 42.6957C30.3107 42.4501 30.3991 41.792 29.9177 41.399C29.7507 41.2615 29.5739 41.1633 29.3775 41.0847C28.8765 40.8686 28.3558 40.7016 27.8941 40.4167C27.1279 39.9648 26.6466 39.3362 26.7055 38.4029C26.7645 37.3519 27.3637 36.7035 28.3264 36.3499C28.7193 36.2025 28.7291 36.2124 28.7291 35.7998C28.7291 35.6623 28.7291 35.5149 28.7291 35.3774C28.7389 35.063 28.7881 35.0139 29.1024 35.0041C29.2006 35.0041 29.2989 35.0041 29.3873 35.0041C30.0553 35.0041 30.0553 35.0041 30.0553 35.6721C30.0553 36.1436 30.0553 36.1436 30.5268 36.2124C30.8804 36.2713 31.2242 36.3695 31.5582 36.5169C31.7449 36.5955 31.8136 36.7232 31.7547 36.9196C31.6761 37.2045 31.5975 37.4992 31.4993 37.7743C31.4109 38.0395 31.3225 38.0788 31.0671 37.9609C30.5464 37.7055 30.0061 37.6073 29.4364 37.6367C29.289 37.6466 29.1417 37.6662 29.0042 37.7251C28.513 37.9413 28.4246 38.4914 28.847 38.8253C29.0631 38.9923 29.2989 39.12 29.5543 39.2281C29.9963 39.4049 30.4285 39.5817 30.8509 39.8175C32.1476 40.5346 32.5111 42.1947 31.5779 43.3244Z" fill="#0D417B"/>
</g>
<defs>
<clipPath id="clip0">
<rect width="48" height="48" fill="white"/>
</clipPath>
</defs>
</svg>
