<svg width="48" height="48" viewBox="0 0 48 48" fill="none" xmlns="http://www.w3.org/2000/svg">
<g clip-path="url(#clip0)">
<path d="M10.108 19.3496C10.6419 20.1411 11.0713 20.9984 11.3855 21.9C12.2482 24.2997 12.5076 27.1564 12.5727 29.1423H35.4264C35.4927 27.1575 35.7521 24.2985 36.6147 21.8989C36.928 20.9984 37.3566 20.1422 37.89 19.3518C38.5878 18.3515 39.4557 17.4813 40.4542 16.7808C40.8146 16.5183 41.1896 16.2764 41.5774 16.0563C38.9527 10.2183 32.0577 6.28857 23.9995 6.28857C16.3641 6.28857 9.62912 10.3417 6.90039 16.3442C7.12204 16.487 7.33575 16.6334 7.54369 16.7808C8.54071 17.4821 9.40833 18.3514 10.108 19.3496Z" fill="#0D417B"/>
<path d="M47.1447 18.522C46.5665 17.9426 45.8523 17.7838 45.425 17.6889C44.8369 17.5581 44.2271 17.5581 43.639 17.6889C42.8917 17.8569 42.4198 18.1894 41.765 18.651C40.9877 19.1961 40.3117 19.8728 39.7676 20.6508C39.3498 21.28 39.0124 21.9591 38.7632 22.6722C37.8251 25.2569 37.688 28.5524 37.6868 30.2847C37.6868 30.9158 37.1752 31.4274 36.5441 31.4274H11.4507C10.8197 31.4274 10.308 30.9158 10.308 30.2847C10.308 28.5513 10.1641 25.2569 9.23505 22.6722C8.98502 21.9585 8.64725 21.2788 8.22945 20.6484C7.68418 19.8707 7.00746 19.194 6.22972 18.6487C5.57496 18.1916 5.10189 17.8488 4.3534 17.6854C3.76613 17.5534 3.1569 17.5534 2.56963 17.6854C2.14113 17.7802 1.42691 17.9403 0.847573 18.5196C0.838467 18.5299 -0.180842 19.5869 0.0282688 20.9661C0.25677 22.4413 1.6657 23.2606 2.56042 23.4502C2.88566 23.5187 3.22236 23.5112 3.54427 23.4285C3.93282 23.3542 4.46642 23.2514 5.072 23.5256C6.97918 24.3873 7.18711 27.6553 5.78043 34.7822C6.49914 36.8939 7.40415 37.0572 8.08976 37.1372H10.3065V40.5653C10.3065 41.1964 10.8182 41.708 11.4492 41.708H12.592C13.2231 41.708 13.7347 41.1964 13.7347 40.5653V37.1407H34.2641V40.5687C34.2641 41.1998 34.7757 41.7114 35.4068 41.7114H36.5495C37.1806 41.7114 37.6923 41.1998 37.6923 40.5687V37.1407H39.909C40.5946 37.0618 41.4996 36.8973 42.2184 34.7856C40.8117 27.6599 41.0197 24.3871 42.9268 23.5291C43.5324 23.2548 44.0695 23.3565 44.4557 23.4319C44.7783 23.5128 45.115 23.5198 45.4407 23.4525C46.3355 23.2627 47.7466 22.4434 47.9729 20.9694C48.1776 19.5903 47.155 18.5334 47.1447 18.522Z" fill="#0D417B"/>
</g>
<defs>
<clipPath id="clip0">
<rect width="48" height="48" fill="white"/>
</clipPath>
</defs>
</svg>
