<svg width="48" height="48" viewBox="0 0 48 48" fill="none" xmlns="http://www.w3.org/2000/svg">
<g clip-path="url(#clip0)">
<path d="M37.8147 12.371C38.5121 12.371 38.7086 11.428 38.0799 11.1431L13.5316 0.25893C12.0384 -0.409052 10.2801 0.25893 9.6121 1.76189L1.01674 21.0351C0.34876 22.5283 1.01674 24.2866 2.5197 24.9546L7.47063 27.0961C8.08949 27.3711 8.79677 26.9193 8.79677 26.2415V18.0587C8.79677 14.9251 11.341 12.3808 14.4746 12.3808H37.8147V12.371Z" fill="#0D417B"/>
<path d="M44.2392 15.0427H14.4649C12.8048 15.0427 11.459 16.3885 11.459 18.0486V39.0802C11.459 40.7404 12.8048 42.0862 14.4649 42.0862H18.463C18.3647 41.4968 18.3156 40.8976 18.3156 40.2885C18.3156 39.6009 18.3844 38.9329 18.5023 38.2747H15.2802V28.2059H43.4337V38.2649H40.2019C40.3197 38.9231 40.3885 39.5911 40.3885 40.2787C40.3885 40.8877 40.3394 41.4869 40.2411 42.0763H44.2392C45.8993 42.0763 47.2451 40.7306 47.2451 39.0704V18.0486C47.2451 16.3885 45.8993 15.0427 44.2392 15.0427ZM43.4337 22.0074H15.2802V18.8542H43.4337V22.0074Z" fill="#0D417B"/>
<path d="M29.3578 32.5579C25.0945 32.5579 21.6367 36.0157 21.6367 40.2789C21.6367 44.5422 25.0945 48 29.3578 48C33.6211 48 37.0789 44.5422 37.0789 40.2789C37.0789 36.0157 33.6211 32.5579 29.3578 32.5579ZM31.5779 43.3242C31.2439 43.7367 30.8018 44.0118 30.291 44.1493C30.0651 44.2083 29.9668 44.3261 29.9767 44.5619C29.9865 44.7878 29.9767 45.0138 29.9767 45.2495C29.9767 45.4558 29.8686 45.5639 29.6722 45.5639C29.4266 45.5737 29.181 45.5737 28.9354 45.5639C28.7193 45.5639 28.6211 45.4362 28.6211 45.2299C28.6211 45.0629 28.6211 44.8959 28.6211 44.7289C28.6211 44.3654 28.6014 44.3458 28.2478 44.2868C27.7959 44.2181 27.3539 44.11 26.9413 43.9136C26.6171 43.7564 26.5778 43.6778 26.6761 43.334C26.7448 43.0786 26.8136 42.8232 26.8922 42.5776C26.9806 42.2829 27.0592 42.2534 27.3342 42.3909C27.7959 42.6267 28.2772 42.7642 28.7881 42.8232C29.1122 42.8625 29.4364 42.833 29.7409 42.6955C30.3107 42.4499 30.3991 41.7917 29.9177 41.3988C29.7507 41.2613 29.5739 41.163 29.3775 41.0845C28.8765 40.8683 28.3558 40.7013 27.8941 40.4165C27.1279 39.9646 26.6466 39.3359 26.7055 38.4027C26.7645 37.3516 27.3637 36.7033 28.3264 36.3496C28.7193 36.2023 28.7291 36.2121 28.7291 35.7995C28.7291 35.662 28.7291 35.5147 28.7291 35.3771C28.7389 35.0628 28.7881 35.0137 29.1024 35.0039C29.2006 35.0039 29.2989 35.0039 29.3873 35.0039C30.0553 35.0039 30.0553 35.0039 30.0553 35.6718C30.0553 36.1434 30.0553 36.1434 30.5268 36.2121C30.8804 36.2711 31.2242 36.3693 31.5582 36.5166C31.7449 36.5952 31.8136 36.7229 31.7547 36.9194C31.6761 37.2043 31.5975 37.499 31.4993 37.774C31.4109 38.0392 31.3225 38.0785 31.0671 37.9607C30.5464 37.7053 30.0061 37.607 29.4364 37.6365C29.289 37.6463 29.1417 37.666 29.0042 37.7249C28.513 37.941 28.4246 38.4911 28.847 38.8251C29.0631 38.9921 29.2989 39.1198 29.5543 39.2279C29.9963 39.4047 30.4285 39.5815 30.8509 39.8173C32.1476 40.5344 32.5111 42.1945 31.5779 43.3242Z" fill="#0D417B"/>
</g>
<defs>
<clipPath id="clip0">
<rect width="48" height="48" fill="white"/>
</clipPath>
</defs>
</svg>
