<svg width="48" height="48" viewBox="0 0 48 48" fill="none" xmlns="http://www.w3.org/2000/svg">
<g clip-path="url(#clip0)">
<path d="M23.9993 36.3877C22.9793 36.3877 22.1494 37.2175 22.1494 38.2375C22.1494 39.2575 22.9793 40.0874 23.9993 40.0874C25.0193 40.0874 25.8492 39.2575 25.8492 38.2375C25.8492 37.2175 25.0193 36.3877 23.9993 36.3877Z" fill="#0D417B"/>
<path d="M23.9995 28.376C21.3543 28.376 18.9495 29.4233 17.1768 31.1245L19.5564 31.8054L17.919 36.8314H19.5534C20.1514 34.9455 21.9182 33.5748 23.9995 33.5748C26.0808 33.5748 27.8475 34.9455 28.4456 36.8314H30.08L28.4426 31.8054L30.8231 31.1243C29.0502 29.423 26.6449 28.376 23.9995 28.376Z" fill="#0D417B"/>
<path d="M19.5534 39.6453H17.0025L16.2717 41.8886L14.7422 41.638C15.974 44.982 18.968 47.4806 22.5928 48.0006V42.6847C21.1509 42.2273 20.0107 41.0871 19.5534 39.6453Z" fill="#0D417B"/>
<path d="M40.9696 30.3947L37.0135 20.61C36.4392 19.1895 35.0779 18.2715 33.5455 18.2715H14.4538C12.9213 18.2715 11.5601 19.1894 10.9857 20.61L7.02974 30.3947C6.51794 31.6607 6.87537 33.1028 7.91904 33.9833L13.341 38.557L14.3443 38.7215L15.9775 33.708L14.5181 33.2906L12.7694 33.3391L12.6914 30.5265L13.9741 30.4908C16.2946 27.4948 19.9255 25.5624 23.9996 25.5624C28.0734 25.5624 31.703 27.4953 34.0235 30.4908L35.3078 30.5264L35.2298 33.339L33.4811 33.2905L32.0216 33.7079L33.6549 38.7214L34.6582 38.5569L40.0801 33.9832C41.124 33.1028 41.4814 31.6607 40.9696 30.3947Z" fill="#0D417B"/>
<path d="M30.9965 39.6453H28.4456C27.9883 41.0871 26.8481 42.2273 25.4062 42.6846V48.0004C29.0308 47.4804 32.0247 44.9819 33.2565 41.638L31.7273 41.8886L30.9965 39.6453Z" fill="#0D417B"/>
<path d="M23.9995 16.8643C28.6565 16.8643 32.4317 13.0891 32.4317 8.43215C32.4317 3.7752 28.6565 0 23.9995 0C19.3426 0 15.5674 3.7752 15.5674 8.43215C15.5674 13.0891 19.3426 16.8643 23.9995 16.8643Z" fill="#0D417B"/>
</g>
<defs>
<clipPath id="clip0">
<rect width="48" height="48" fill="white"/>
</clipPath>
</defs>
</svg>
