<svg width="16" height="16" viewBox="0 0 16 16" fill="none" xmlns="http://www.w3.org/2000/svg">
<path d="M7.99936 0C5.05861 0 2.66602 2.39259 2.66602 5.33334C2.66602 6.21616 2.88673 7.09147 3.30633 7.86784L7.7077 15.8281C7.7663 15.9342 7.87795 16 7.99936 16C8.12077 16 8.23242 15.9342 8.29102 15.8281L12.694 7.86522C13.112 7.09147 13.3327 6.21613 13.3327 5.33331C13.3327 2.39259 10.9401 0 7.99936 0ZM7.99936 8C6.52898 8 5.3327 6.80372 5.3327 5.33334C5.3327 3.86297 6.52898 2.66669 7.99936 2.66669C9.46973 2.66669 10.666 3.86297 10.666 5.33334C10.666 6.80372 9.46973 8 7.99936 8Z" fill="#1E90FF"/>
</svg>
