<svg width="52" height="31" viewBox="0 0 52 31" fill="none" xmlns="http://www.w3.org/2000/svg">
<path d="M10.4937 7.93067C8.61416 8.11127 6.9377 8.91702 5.61874 10.2757C4.36478 11.5621 3.61457 13.1347 3.36811 14.9852C3.31124 15.4103 3.30311 16.4522 3.35457 16.8606C3.48186 17.922 3.74999 18.8166 4.20228 19.7085C5.44811 22.1674 7.80707 23.7845 10.5127 24.0318C12.376 24.2013 14.2664 23.665 15.7967 22.5314C15.9429 22.4231 16.0756 22.323 16.0946 22.3091C16.1189 22.2925 16.2002 22.3397 16.3492 22.4536C18.3289 23.9818 20.9317 24.4541 23.3312 23.7206C24.2114 23.4511 25.1648 22.9482 25.8446 22.3981C25.9177 22.3397 25.9854 22.2925 25.9989 22.2925C26.0125 22.2925 26.0802 22.3397 26.1533 22.3981C27.6239 23.59 29.6796 24.2068 31.5862 24.0318C33.1002 23.8929 34.4733 23.3594 35.6514 22.4508C35.7977 22.3397 35.8789 22.2925 35.9033 22.3091C35.9223 22.323 36.055 22.4231 36.2012 22.5314C38.8527 24.4958 42.444 24.5736 45.1414 22.7259C46.325 21.9174 47.2133 20.8921 47.8417 19.6113C48.7869 17.6914 48.944 15.5019 48.2858 13.4431C47.904 12.2512 47.2594 11.1815 46.3792 10.2757C45.1442 9.00315 43.595 8.21685 41.8427 7.96957C41.3444 7.90011 40.521 7.88622 40.0335 7.93901C38.6956 8.08627 37.5256 8.51692 36.426 9.26989C36.2689 9.37547 36.0848 9.51161 36.0144 9.57274C35.9304 9.64498 35.8735 9.67554 35.8519 9.65887C35.8302 9.64775 35.7002 9.54773 35.5567 9.43937C34.9662 8.98648 34.17 8.56416 33.4414 8.31688C31.7027 7.72507 29.7798 7.76952 28.106 8.43913C27.3775 8.73087 26.6273 9.1643 26.1127 9.58941L25.9989 9.68387L25.9096 9.61163C25.3923 9.18375 24.6123 8.72531 23.9406 8.45858C23.0712 8.11127 22.2533 7.93901 21.3 7.90845C19.5342 7.8501 17.8279 8.3919 16.4087 9.4616L16.1135 9.68387L15.9835 9.57274C15.8075 9.4227 15.3362 9.10318 15.0356 8.92814C13.676 8.14739 12.0267 7.78341 10.4937 7.93067ZM12.1594 9.66165C13.0612 9.82002 13.89 10.1534 14.6158 10.648L14.9462 10.873L14.7079 11.2092C13.9117 12.329 13.4133 13.6209 13.2373 15.0129C13.1831 15.4464 13.1912 16.6022 13.2508 17.0412C13.351 17.7747 13.5839 18.6138 13.8629 19.264C14.1039 19.8197 14.4967 20.4948 14.8135 20.9005L14.9544 21.0755L14.8921 21.1227C14.261 21.6006 13.3808 22.0202 12.6198 22.2036C12.1187 22.3258 11.8181 22.3592 11.1979 22.3592C10.5289 22.3619 10.2229 22.323 9.62707 22.1674C9.10166 22.0285 8.41103 21.7396 8.04541 21.5034C7.64457 21.2422 7.51186 21.1478 7.29791 20.9727C6.41499 20.2392 5.71624 19.2501 5.33436 18.1804C5.2179 17.8608 5.07978 17.2885 5.0202 16.9023C4.95249 16.455 4.94978 15.5103 5.01749 15.0685C5.20166 13.8488 5.64582 12.8291 6.40416 11.8872C7.37374 10.6813 8.82541 9.85336 10.3177 9.65331C10.445 9.63664 10.5777 9.61719 10.6156 9.61163C10.7862 9.58107 11.9156 9.61997 12.1594 9.66165ZM22.0854 9.67554C23.0279 9.8478 23.7727 10.1507 24.531 10.673C24.6529 10.7564 24.7667 10.8425 24.7802 10.8619C24.8019 10.8869 24.7721 10.9481 24.6692 11.0842C23.9433 12.0622 23.4179 13.2792 23.1958 14.4795C23.0306 15.3686 23.0333 16.5772 23.1958 17.4885C23.4098 18.6722 23.965 19.9391 24.6935 20.9116C24.8344 21.1033 24.8506 21.0727 24.4687 21.3339C23.7537 21.8174 22.8573 22.1674 21.9635 22.3091C21.5302 22.3786 20.6094 22.3786 20.176 22.3119C19.4367 22.1952 18.6675 21.9313 18.0825 21.5951C17.7819 21.4256 17.2998 21.0977 17.3106 21.0727C17.316 21.0644 17.4054 20.9366 17.511 20.7921C18.0094 20.1086 18.4508 19.2251 18.7 18.4026C18.9519 17.5802 19.0494 16.8939 19.0494 15.9854C19.0494 15.2852 19.0087 14.8685 18.8706 14.2211C18.635 13.0986 18.0933 11.9177 17.4108 11.0286C17.3539 10.9564 17.3133 10.8814 17.3214 10.8675C17.3594 10.8064 17.9308 10.4452 18.2531 10.2785C18.9058 9.93949 19.5098 9.74778 20.2708 9.63664C20.6825 9.57829 21.6629 9.59774 22.0854 9.67554ZM31.7054 9.63664C32.4664 9.73944 33.0921 9.93671 33.7475 10.2785C34.0535 10.4368 34.5654 10.7619 34.6602 10.8564C34.6873 10.8842 34.6683 10.9231 34.5681 11.0564C33.8964 11.9316 33.3602 13.1097 33.1273 14.2211C32.9864 14.8796 32.9485 15.2602 32.9485 15.9715C32.9485 16.6606 32.9892 17.094 33.111 17.6664C33.3575 18.8361 33.8314 19.9002 34.5139 20.831C34.6142 20.9672 34.6846 21.0866 34.6737 21.0977C34.476 21.2728 33.7908 21.6868 33.4739 21.8201C32.5423 22.2202 31.8814 22.3619 30.9281 22.3592C29.8908 22.3592 29.1027 22.1758 28.2062 21.7201C27.8514 21.5423 27.3314 21.22 27.2204 21.1116C27.1879 21.0811 27.215 21.0311 27.3829 20.7949C28.0437 19.8752 28.5069 18.8389 28.7479 17.7442C28.9619 16.7634 28.9835 15.4686 28.8021 14.4795C28.5827 13.282 28.0519 12.0594 27.3314 11.087C27.2529 10.9842 27.1906 10.8925 27.1906 10.8869C27.1906 10.8647 27.475 10.6619 27.7323 10.498C28.2875 10.1479 29.0187 9.85336 29.6769 9.71999C30.3106 9.59219 31.1123 9.55884 31.7054 9.63664ZM41.775 9.66165C43.3567 9.95338 44.6404 10.7008 45.591 11.8872C46.3521 12.8374 46.7962 13.8515 46.9804 15.0685C47.0454 15.5131 47.0454 16.4577 46.9777 16.9023C46.7312 18.5305 45.9377 19.9502 44.7 20.9727C44.486 21.1478 44.3533 21.2422 43.9525 21.5034C43.5869 21.7396 42.8962 22.0285 42.3708 22.1674C41.775 22.323 41.4689 22.3619 40.8 22.3592C40.0065 22.3592 39.5487 22.2841 38.8229 22.0396C38.3029 21.8618 37.5635 21.4756 37.1708 21.17C37.1112 21.1255 37.0598 21.0838 37.0544 21.0811C37.049 21.0783 37.1031 21.0005 37.1735 20.9116C37.4796 20.5282 37.9021 19.803 38.1323 19.264C38.6902 17.9692 38.9069 16.5522 38.766 15.1463C38.6144 13.6154 38.0673 12.24 37.1031 10.9508L37.0462 10.873L37.3794 10.648C38.2325 10.0729 39.1181 9.75056 40.2177 9.61163C40.4452 9.58385 41.5394 9.61997 41.775 9.66165ZM16.2869 12.3095C16.8177 13.0791 17.1644 13.9516 17.335 14.9435C17.3919 15.2574 17.4 15.3964 17.3973 15.9854C17.3973 16.6022 17.3919 16.705 17.3242 17.069C17.1589 18.0025 16.8664 18.75 16.3681 19.5196C16.2408 19.7169 16.1352 19.8752 16.1298 19.8752C16.1081 19.8752 15.8942 19.5613 15.7398 19.3029C15.2712 18.5193 14.9733 17.6136 14.865 16.6467C14.8217 16.241 14.8487 15.3186 14.9192 14.9157C15.0302 14.2628 15.1873 13.7654 15.4744 13.1653C15.6558 12.7846 16.0729 12.0956 16.1189 12.0956C16.1298 12.0956 16.2056 12.1928 16.2869 12.3095ZM26.2427 12.4345C26.955 13.5265 27.3504 14.9629 27.2881 16.2216C27.2258 17.4608 26.8764 18.561 26.2264 19.5557C25.9962 19.9086 26.0071 19.8947 25.9583 19.8308C25.8039 19.6252 25.5304 19.1695 25.376 18.8611C24.4958 17.0801 24.485 14.9685 25.3462 13.1653C25.5223 12.7957 25.9502 12.0956 25.9989 12.0956C26.0125 12.0956 26.1208 12.2484 26.2427 12.4345ZM36.1092 12.4234C36.361 12.8068 36.6833 13.4653 36.8187 13.871C37.0435 14.5489 37.1275 15.0296 37.1492 15.7853C37.1789 16.8189 37.0219 17.6608 36.6292 18.5749C36.4558 18.9833 36.1362 19.5446 35.9331 19.8002L35.8708 19.878L35.7435 19.7002C35.1964 18.9167 34.8281 18.0081 34.6629 17.0134C34.5789 16.5133 34.5708 15.5047 34.6467 15.0268C34.8146 13.9821 35.1639 13.0958 35.7381 12.2678C35.8058 12.1734 35.8681 12.0956 35.8789 12.0956C35.8898 12.0956 35.9927 12.2428 36.1092 12.4234Z" fill="#0D417B"/>
</svg>
