<svg width="30" height="31" viewBox="0 0 30 31" fill="none" xmlns="http://www.w3.org/2000/svg">
<path fill-rule="evenodd" clip-rule="evenodd" d="M14.9998 26.9282C8.95718 26.9282 4.05859 22.0283 4.05859 15.9843C4.05859 9.9403 8.95718 5.04053 14.9998 5.04053C21.0425 5.04053 25.9409 9.9403 25.9409 15.9843C25.9409 22.0283 21.0425 26.9282 14.9998 26.9282Z" fill="#0D417B"/>
<path fill-rule="evenodd" clip-rule="evenodd" d="M15.0024 17.6396L6.11943 21.3171C7.99106 24.4628 11.3827 26.3822 15.0403 26.3632C18.6886 26.3538 22.0707 24.4151 23.9233 21.2602L15.0024 17.6396ZM13.4638 15.0423L14.8793 5.66309C11.2311 5.71054 7.86792 7.67764 6.04385 10.8421C4.21032 14.0065 4.19127 17.9026 5.98695 21.0861L13.4638 15.0423ZM16.494 15.1667L24.0562 21.0203C25.8139 17.837 25.7758 13.9693 23.9424 10.8239C23.046 9.27736 21.7646 7.98929 20.2229 7.08504C18.6812 6.18079 16.9318 5.69117 15.1448 5.66383L16.494 15.1667Z" fill="white"/>
</svg>
