<svg width="30" height="31" viewBox="0 0 30 31" fill="none" xmlns="http://www.w3.org/2000/svg">
<path fill-rule="evenodd" clip-rule="evenodd" d="M18.039 27.0014C23.4909 26.1306 26.5712 22.8053 26.5712 15.989C26.5712 9.16888 23.4909 5.84353 18.039 4.97282C17.0346 4.81125 15.9475 4.73242 14.7857 4.73242C13.6236 4.73242 12.5364 4.81125 11.532 4.97282C6.08421 5.84353 3 9.16888 3 15.989C3 22.8053 6.08421 26.1306 11.532 27.0014C12.5364 27.1629 13.6236 27.2379 14.7857 27.2379C15.9475 27.2379 17.0346 27.1629 18.039 27.0014ZM18.039 5.82776C21.8916 6.65914 25.0468 9.29094 25.0468 15.9891C25.0468 21.0796 23.2231 23.8177 20.6546 25.2048L19.205 15.4612L18.039 12.1753L15.6797 5.52854C16.4792 5.56787 17.275 5.6623 18.039 5.82776ZM14.3404 5.5087C14.4901 5.50481 14.6358 5.50074 14.7857 5.50074C14.9313 5.50074 15.0809 5.50464 15.2306 5.5087L15.3608 13.6289H14.2104L14.3404 5.5087ZM4.52423 15.9891C4.52423 9.29111 7.67946 6.65914 11.5318 5.82776C12.2959 5.6623 13.0916 5.5677 13.8913 5.52837L11.5318 12.1752L10.3659 15.461L8.91623 25.2047C6.34811 23.8177 4.52423 21.0796 4.52423 15.9891ZM11.5318 26.1464C10.7047 25.9652 9.90893 25.705 9.16826 25.3386L11.5318 20.4332L14.0921 15.1181H15.4787L18.0389 20.4332L20.4024 25.3386C19.6619 25.705 18.8662 25.965 18.0389 26.1464C16.9911 26.3709 15.8882 26.4655 14.7855 26.4694C13.6825 26.4655 12.5796 26.3709 11.5318 26.1464Z" fill="#0D417B"/>
</svg>
