<svg width="30" height="31" viewBox="0 0 30 31" fill="none" xmlns="http://www.w3.org/2000/svg">
<path fill-rule="evenodd" clip-rule="evenodd" d="M15.5116 8.49136C14.1763 10.1383 10.3679 15.4555 9.93393 16.144C9.09835 17.4631 9.02452 18.1024 8.99991 18.5283C8.97568 18.9463 8.97568 19.7001 9.65541 20.3147C10.7941 21.3306 12.3911 21.1665 13.8083 21.1665H25.4808C25.9804 21.1665 26.1281 21.0188 26.3984 20.6586C27.332 19.2328 27.75 17.6843 27.75 16.2995C27.75 13.3334 25.8253 9.59754 20.9512 7.90955L20.402 8.69611C24.2682 10.531 25.8659 12.9317 25.8659 16.2909C25.8905 17.1923 25.6527 18.1672 25.0628 19.0687H13.7095C13.0298 19.0687 12.9314 18.2985 13.1771 17.864C14.1504 16.1314 15.2367 14.4647 16.4288 12.8747C17.5757 11.3426 18.7059 9.90858 19.8938 8.40931C20.2134 7.9916 20.0001 7.58993 19.3614 7.45903C18.0344 7.18043 16.6503 6.98389 14.9709 6.98389C5.65796 6.98389 2.25 12.3339 2.25 16.2995C2.25 20.6011 5.68219 25.5909 14.9955 25.5909C20.1641 25.5909 23.5475 23.9271 25.505 21.789H23.5307C21.8185 23.3703 18.8778 24.4933 14.9955 24.4933C7.10727 24.4933 4.19969 20.0604 4.19969 16.2421C4.25674 12.8336 7.37759 8.13072 15.1924 7.9752C15.4873 7.96699 15.717 8.23738 15.5116 8.49136Z" fill="#0D417B"/>
</svg>
