<svg width="52" height="31" viewBox="0 0 52 31" fill="none" xmlns="http://www.w3.org/2000/svg">
<path d="M33.3113 19.764C32.6319 18.8751 26.0133 9.86619 26.0133 9.86619C26.0133 9.86619 19.3693 18.9514 18.7343 19.784C16.2805 19.5726 12.0165 17.9197 12.0165 15.0511C12.0165 11.4035 18.2074 8.02526 26.0133 8.02526C34.2108 8.02526 40.0112 11.4035 40.0112 15.0511C40.0112 17.9197 35.7685 19.5528 33.3113 19.764ZM26.0133 6.9834C15.9313 6.9834 8.91406 10.9602 8.91406 16.1108C8.91406 18.5136 10.4483 21.232 13.7045 22.8669C16.7269 24.3827 20.9963 24.911 21.6129 24.9875L26.0133 11.8927L30.4588 24.9877C31.0735 24.9112 35.3039 24.3827 38.3268 22.8669C41.5811 21.2323 43.116 18.5136 43.116 16.1108C43.116 10.9602 36.0967 6.9834 26.0133 6.9834Z" fill="#0D417B"/>
</svg>
