<svg width="80" height="80" viewBox="0 0 80 80" fill="none" xmlns="http://www.w3.org/2000/svg">
<g clip-path="url(#clip0_1_29267)">
<path d="M50.5884 70.5894C47.3396 70.5894 44.706 67.9558 44.706 64.7071C44.706 61.4583 47.3396 58.8247 50.5884 58.8247C53.8371 58.8247 56.4707 61.4583 56.4707 64.7071C56.4707 67.9558 53.8371 70.5894 50.5884 70.5894Z" fill="#768A9E"/>
<path d="M16.0786 70.5894C12.8299 70.5894 10.1962 67.9558 10.1962 64.7071C10.1962 61.4583 12.8299 58.8247 16.0786 58.8247C19.3273 58.8247 21.9609 61.4583 21.9609 64.7071C21.9609 67.9558 19.3273 70.5894 16.0786 70.5894Z" fill="#768A9E"/>
<path d="M67.0591 70.5894C63.8103 70.5894 61.1767 67.9558 61.1767 64.7071C61.1767 61.4583 63.8103 58.8247 67.0591 58.8247C70.3078 58.8247 72.9414 61.4583 72.9414 64.7071C72.9414 67.9558 70.3078 70.5894 67.0591 70.5894Z" fill="#768A9E"/>
<path d="M28.2353 9.41235H80V40.0006H28.2353V9.41235ZM65.8824 34.0398H70.5882V15.2163H65.8824V34.0398ZM56.4706 34.0398H61.1765V15.2163H56.4706V34.0398ZM47.0588 34.0398H51.7647V15.2163H47.0588V34.0398ZM37.6471 34.0398H42.3529V15.2163H37.6471V34.0398Z" fill="#768A9E"/>
<path d="M37.6465 56.4717H28.2347V65.8834H37.6465V56.4717Z" fill="#768A9E"/>
<path d="M14.1172 28.2358V32.9417C14.1172 35.5365 12.0061 37.6476 9.4113 37.6476H-0.000473022L5.25569 28.2358H14.1172Z" fill="#768A9E"/>
<path d="M7.05882 14.1184H23.5294V44.7066H80V61.1772H75.7838C74.3875 57.7286 71.0083 55.2949 67.0588 55.2949C63.5137 55.2949 60.4293 57.2565 58.8248 60.152C57.2199 57.2561 54.1338 55.2949 50.5882 55.2949C47.0424 55.2949 43.9572 57.2574 42.3529 60.1542V51.7655H23.5294V58.9597C21.8082 56.7314 19.1118 55.2949 16.0784 55.2949C12.1289 55.2949 8.74995 57.7286 7.35341 61.1772H0V51.7655H7.05882V47.0596H0V42.3537H9.41176C14.6014 42.3537 18.8235 38.1316 18.8235 32.9419V23.5302H0V21.1772C0 17.285 3.16643 14.1184 7.05882 14.1184Z" fill="#768A9E"/>
</g>
<defs>
<clipPath id="clip0_1_29267">
<rect width="80" height="80" fill="white" transform="matrix(-1 0 0 1 80 0)"/>
</clipPath>
</defs>
</svg>
