<svg width="80" height="80" viewBox="0 0 80 80" fill="none" xmlns="http://www.w3.org/2000/svg">
<path d="M26.23 23.285L17.9448 34.058C17.7281 34.3392 17.424 34.5418 17.0794 34.6349L3.21949 38.3838C1.32244 38.8998 0.00548223 40.605 0 42.553V47.5635C0 49.9466 1.96792 51.9601 4.37503 51.9601H5.39147C5.90294 46.6752 10.6447 42.8015 15.9825 43.3079C20.6128 43.7471 24.2778 47.376 24.7214 51.9601H54.3068C54.8183 46.6752 59.56 42.8015 64.8979 43.3079C69.5281 43.7471 73.1931 47.376 73.6367 51.9601H75.6516C78.0589 51.9601 80 49.9466 80 47.5635V41.8444C80.0012 40.1515 79.0045 38.6136 77.4495 37.9093L69.9882 34.5473C69.6981 34.4162 69.4532 34.2037 69.2839 33.9359L62.8459 23.7579C61.6879 21.9136 59.6479 20.7944 57.4544 20.8001H31.2918C29.3066 20.8065 27.4367 21.7244 26.23 23.285Z" fill="#768A9E"/>
<path d="M8.5957 52.8021C8.59591 56.3355 11.4889 59.1998 15.0576 59.1996C18.6264 59.1994 21.5194 56.3351 21.5192 52.8018C21.519 49.2684 18.626 46.4041 15.0572 46.4043C11.4901 46.4083 8.59936 49.2704 8.5957 52.8021Z" fill="#768A9E"/>
<path d="M57.5098 52.8021C57.51 56.3355 60.403 59.1998 63.9717 59.1996C67.5404 59.1994 70.4334 56.3351 70.4332 52.8018C70.433 49.2684 67.54 46.4043 63.9715 46.4043C60.4042 46.4083 57.5136 49.2704 57.5098 52.8021Z" fill="#768A9E"/>
</svg>
