<svg width="80" height="80" viewBox="0 0 80 80" fill="none" xmlns="http://www.w3.org/2000/svg">
<g clip-path="url(#clip0_1_29248)">
<path d="M58.3584 35.9004C57.4041 35.9004 56.8418 36.4285 56.8418 37.6043V42.1196C56.8418 43.2952 57.4043 43.8235 58.3584 43.8235C59.3124 43.8235 59.892 43.2952 59.892 42.1196V37.6043C59.892 36.4285 59.3126 35.9004 58.3584 35.9004Z" fill="#768A9E"/>
<path d="M68.0537 35.9004C67.0995 35.9004 66.5371 36.4285 66.5371 37.6043V42.1196C66.5371 43.2952 67.0996 43.8235 68.0537 43.8235C69.0077 43.8235 69.5873 43.2952 69.5873 42.1196V37.6043C69.5873 36.4285 69.0079 35.9004 68.0537 35.9004Z" fill="#768A9E"/>
<path d="M48.663 35.9004C47.7088 35.9004 47.1465 36.4285 47.1465 37.6043V42.1196C47.1465 43.2952 47.709 43.8235 48.663 43.8235C49.6171 43.8235 50.1966 43.2952 50.1966 42.1196V37.6043C50.1966 36.4285 49.6174 35.9004 48.663 35.9004Z" fill="#768A9E"/>
<path d="M71.9825 25.708H8.0175C3.59672 25.708 0 29.3046 0 33.7254V46.2744C0 50.6952 3.59672 54.2919 8.0175 54.2919H71.9827C76.4034 54.2919 80.0002 50.6952 80.0002 46.2744V33.7254C80 29.3046 76.4033 25.708 71.9825 25.708ZM18.9106 28.3224C19.8733 28.3224 20.6536 29.1027 20.6536 30.0654C20.6536 31.028 19.8733 31.8083 18.9106 31.8083C17.948 31.8083 17.1677 31.028 17.1677 30.0654C17.1678 29.1027 17.9481 28.3224 18.9106 28.3224ZM15.783 45.8683L13.2953 41.6425L10.8075 45.8682C10.6883 46.0555 10.4497 46.1408 10.177 46.1408C9.44453 46.1408 8.405 45.5615 8.405 44.8288C8.405 44.6754 8.45609 44.5221 8.55844 44.3518L11.5063 39.8022L8.67766 35.2697C8.55828 35.0824 8.50719 34.9119 8.50719 34.7414C8.50719 34.026 9.47828 33.4807 10.2281 33.4807C10.6028 33.4807 10.8586 33.6169 11.0291 33.9238L13.2952 37.8771L15.5614 33.9238C15.7319 33.6171 15.9873 33.4807 16.3623 33.4807C17.1122 33.4807 18.0833 34.026 18.0833 34.7414C18.0833 34.9121 18.0322 35.0824 17.9128 35.2697L15.0842 39.8022L18.032 44.3518C18.1342 44.5222 18.1855 44.6754 18.1855 44.8288C18.1855 45.5615 17.1459 46.1408 16.4133 46.1408C16.1408 46.1408 15.8853 46.0557 15.783 45.8683ZM18.9106 51.8518C17.948 51.8518 17.1677 51.0715 17.1677 50.1088C17.1677 49.1461 17.948 48.3658 18.9106 48.3658C19.8733 48.3658 20.6536 49.1461 20.6536 50.1088C20.6536 51.0715 19.8733 51.8518 18.9106 51.8518ZM28.2555 34.8608L24.7452 40.7054C24.7111 40.7565 24.677 40.8416 24.677 40.9438V45.2207C24.677 45.7658 24.0125 46.0385 23.3478 46.0385C22.6831 46.0385 22.0189 45.7658 22.0189 45.2207V40.9438C22.0189 40.8416 21.9848 40.7565 21.9506 40.7054L18.4236 34.8608C18.3894 34.7927 18.3894 34.7246 18.3894 34.6735C18.3894 34.043 19.4628 33.583 20.1956 33.583C20.6216 33.583 20.775 33.7535 20.9623 34.0771L23.3478 38.4561L25.7162 34.0771C25.8869 33.7535 26.0572 33.583 26.483 33.583C27.2156 33.583 28.2892 34.0432 28.2892 34.6735C28.2897 34.7244 28.2897 34.7927 28.2555 34.8608ZM36.5534 46.0386H29.2948C28.7495 46.0386 28.5281 45.749 28.5281 45.34C28.5281 45.0674 28.6305 44.7266 28.8178 44.4027L33.6228 35.9002H29.6695C29.1583 35.9002 28.8686 35.3549 28.8686 34.7414C28.8686 34.1791 29.1072 33.5829 29.6695 33.5829H36.2467C36.758 33.5829 37.0133 33.8725 37.0133 34.2816C37.0133 34.5541 36.9111 34.8779 36.7238 35.2188L31.9188 43.7213H36.5533C37.0647 43.7213 37.3544 44.3347 37.3544 44.88C37.3542 45.4252 37.0645 46.0386 36.5534 46.0386ZM52.8552 42.1196C52.8552 45.0504 51.0148 46.1408 48.6634 46.1408C46.312 46.1408 44.4888 45.0504 44.4888 42.1196V37.6043C44.4888 34.6735 46.312 33.583 48.6634 33.583C51.0148 33.583 52.8552 34.6735 52.8552 37.6043V42.1196ZM54.1836 42.1196V37.6043C54.1836 34.6735 56.0069 33.583 58.3583 33.583C60.7097 33.583 62.55 34.6735 62.55 37.6043V42.1196C62.55 45.0504 60.7097 46.1408 58.3583 46.1408C56.0069 46.1408 54.1836 45.0505 54.1836 42.1196ZM61.0894 51.8518C60.1267 51.8518 59.3464 51.0715 59.3464 50.1088C59.3464 49.1461 60.1267 48.3658 61.0894 48.3658C62.052 48.3658 62.8323 49.1461 62.8323 50.1088C62.8322 51.0715 62.0519 51.8518 61.0894 51.8518ZM61.0894 31.8082C60.1267 31.8082 59.3464 31.0279 59.3464 30.0652C59.3464 29.1025 60.1267 28.3222 61.0894 28.3222C62.052 28.3222 62.8323 29.1025 62.8323 30.0652C62.8322 31.0279 62.0519 31.8082 61.0894 31.8082ZM72.2447 42.1196C72.2447 45.0504 70.4044 46.1408 68.053 46.1408C65.7016 46.1408 63.8783 45.0504 63.8783 42.1196V37.6043C63.8783 34.6735 65.7016 33.583 68.053 33.583C70.4044 33.583 72.2447 34.6735 72.2447 37.6043V42.1196Z" fill="#768A9E"/>
</g>
<defs>
<clipPath id="clip0_1_29248">
<rect width="80" height="80" fill="white"/>
</clipPath>
</defs>
</svg>
