<svg width="80" height="80" viewBox="0 0 80 80" fill="none" xmlns="http://www.w3.org/2000/svg">
<path d="M14.0625 40C15.9872 40 18.0631 40.4689 19.8238 41.2658L21.962 38.0772C18.9217 36.3173 15.4152 35.3125 11.7188 35.3125C10.4233 35.3125 9.375 34.2642 9.375 32.9688V28.2812C9.375 19.2358 16.7358 11.875 25.7812 11.875H30.4688C31.7642 11.875 32.8125 12.9233 32.8125 14.2188C32.8125 15.5142 31.7642 16.5625 30.4688 16.5625H28.125V21.25H35.1562C35.9391 21.25 36.6714 21.6414 37.1063 22.2937L39.5356 25.9375H59.2153L60.3917 24.1728C61.6116 22.3417 63.6533 21.25 65.8505 21.25H77.6562C78.9517 21.25 80 22.2983 80 23.5938C80 29.6156 75.4338 34.5916 69.5836 35.2416L66.3806 40.045C73.9258 40.2855 80 46.4598 80 54.0625C80 61.817 73.692 68.125 65.9375 68.125C59.9402 68.125 54.6748 64.2741 52.7133 58.75H38.6147C35.4973 58.75 32.7897 56.5298 32.1808 53.4742L31.8489 51.8148C30.9858 47.5009 28.7419 43.7714 25.6955 40.9216L23.7098 43.8825C26.5534 46.5781 28.125 50.3048 28.125 54.0625C28.125 61.6291 21.7633 68.125 14.0625 68.125C6.30797 68.125 0 61.817 0 54.0625C0 46.308 6.30797 40 14.0625 40ZM65.9375 58.7344H57.8352C59.4788 61.5583 62.5323 63.4375 65.9375 63.4375C71.108 63.4375 75.3125 59.233 75.3125 54.0625C75.3125 48.892 71.108 44.6875 65.9375 44.6875C64.8958 44.6875 63.8936 44.8937 62.9273 45.2236L62.1083 46.4522C60.8884 48.2833 58.8467 49.375 56.6495 49.375H65.9375C68.5264 49.375 70.625 51.4736 70.625 54.0625C70.625 56.6514 68.5264 58.7344 65.9375 58.7344ZM14.0625 63.4375C19.1408 63.4375 23.4375 59.1723 23.4375 54.0625C23.4375 51.8961 22.6787 49.7348 21.0317 47.8761L16.0081 55.3672C15.2952 56.4348 13.8356 56.7347 12.758 56.0081C11.6822 55.2872 11.3961 53.8314 12.117 52.758L17.1422 45.265C16.0111 44.8692 15.2558 44.6875 14.0625 44.6875C8.89203 44.6875 4.6875 48.892 4.6875 54.0625C4.6875 59.233 8.89203 63.4375 14.0625 63.4375Z" fill="#768A9E"/>
</svg>
