<svg width="80" height="80" viewBox="0 0 80 80" fill="none" xmlns="http://www.w3.org/2000/svg">
<g clip-path="url(#clip0_1_29282)">
<path d="M75.3431 49.3148L2.99606 41.1627C2.44012 41.1001 2.06543 41.7027 2.3534 42.1827C6.97748 49.896 17.9241 55.3334 30.6668 55.3334H73.8257C74.119 55.3334 74.3763 55.1428 74.4631 54.8628L75.9057 50.1734C76.0284 49.7748 75.7578 49.3615 75.3431 49.3148Z" fill="#768A9E"/>
<path d="M79.7897 35.9476C79.5777 35.617 79.2323 35.397 78.8444 35.3449L58.8443 32.6782C58.1229 32.5835 57.4443 33.0941 57.3457 33.8235C57.2471 34.5529 57.7616 35.2249 58.491 35.3221L60.7551 35.6235C61.0857 35.6676 61.3337 35.9503 61.3337 36.2835V38.345C61.3337 38.7409 60.9896 39.0503 60.5963 39.0076L55.263 38.4356C54.9244 38.4009 54.6671 38.1142 54.6671 37.7742V31.9382C54.6671 31.8062 54.7057 31.6782 54.7791 31.5688L57.1098 28.0729C57.3765 27.6729 57.4071 27.1608 57.1912 26.7329C56.9738 26.3035 56.5432 26.0235 56.0632 26.0008L28.0631 24.6675C27.6137 24.6635 27.1778 24.8569 26.9151 25.2249C26.9151 25.2249 21.5871 32.7129 20.4191 34.3609C20.2791 34.5582 20.0445 34.6635 19.8045 34.6368L1.47469 32.6743C1.0961 32.6343 0.722659 32.7557 0.441408 33.0076C0.161407 33.261 0 33.621 0 33.9996C0 35.2837 0.166719 36.5423 0.481408 37.7637C0.550783 38.0331 0.785472 38.229 1.06141 38.261L76.3909 46.7491C76.7095 46.785 77.0083 46.5891 77.103 46.2823L79.9417 37.0582C80.0563 36.6837 80.0003 36.277 79.7897 35.9476ZM38.4775 28.5622L37.4375 35.8449C37.3869 36.1982 37.0734 36.4503 36.7175 36.4143C34.1162 36.1517 24.3428 35.1237 24.3428 35.1237C23.836 35.069 23.5748 34.489 23.8707 34.0731L28.4507 27.661C28.5828 27.4769 28.7987 27.3716 29.0254 27.3824L37.8495 27.8024C38.2416 27.821 38.5334 28.1729 38.4775 28.5622ZM52.9322 29.5343L52.1122 30.761C52.039 30.8704 52.0002 30.9996 52.0002 31.1316V37.3464C52.0002 37.7423 51.6561 38.0517 51.2629 38.009L40.6814 36.8757C40.3067 36.8357 40.0388 36.4917 40.092 36.1184L41.1706 28.5677C41.2186 28.2277 41.5186 27.9797 41.8627 27.9957L52.4094 28.4983C52.9269 28.5222 53.2202 29.1023 52.9322 29.5343ZM69.3335 39.2023C69.3335 39.5982 68.9895 39.9076 68.5962 39.865C68.5962 39.865 65.8282 39.5529 64.5882 39.4064C64.2523 39.3678 64.0003 39.0823 64.0003 38.745V36.817C64.0003 36.4143 64.3549 36.1023 64.7549 36.1556L68.755 36.6888C69.0856 36.7342 69.3335 37.0168 69.3335 37.3503V39.2023ZM76.6976 38.5329L76.2029 40.1382C76.1097 40.4423 75.8123 40.6382 75.495 40.605L72.595 40.2943C72.2576 40.2584 72.0003 39.9717 72.0003 39.6317V37.8849C72.0003 37.4823 72.355 37.1703 72.755 37.2235L76.1483 37.6756C76.5562 37.7303 76.8189 38.1384 76.6976 38.5329Z" fill="#768A9E"/>
</g>
<defs>
<clipPath id="clip0_1_29282">
<rect width="80" height="80" fill="white"/>
</clipPath>
</defs>
</svg>
