<svg width="40" height="40" viewBox="0 0 40 40" fill="none" xmlns="http://www.w3.org/2000/svg">
<path d="M34.0934 29.2627C34.0086 29.262 33.9242 29.2747 33.8434 29.3002L31.6309 29.9502L23.2621 31.8627V31.8502C23.217 31.8621 23.171 31.8705 23.1246 31.8752H17.5059L17.0684 32.0315L20.1621 33.7502H24.9121L33.4871 31.2252C33.6559 31.1764 33.8302 31.1491 34.0059 31.144L34.4246 31.0127C34.5956 30.9483 34.7426 30.8327 34.8455 30.6817C34.9484 30.5307 35.0022 30.3517 34.9996 30.169C34.9994 29.9287 34.9039 29.6983 34.734 29.5283C34.5641 29.3584 34.3337 29.2629 34.0934 29.2627Z" fill="#768A9E"/>
<path d="M38.75 19.375C38.75 20.2038 38.4208 20.9987 37.8347 21.5847C37.2487 22.1708 36.4538 22.5 35.625 22.5H4.375C3.5462 22.5 2.75134 22.1708 2.16529 21.5847C1.57924 20.9987 1.25 20.2038 1.25 19.375C1.25 19.2092 1.31585 19.0503 1.43306 18.9331C1.55027 18.8158 1.70924 18.75 1.875 18.75H38.125C38.2908 18.75 38.4497 18.8158 38.5669 18.9331C38.6842 19.0503 38.75 19.2092 38.75 19.375Z" fill="#768A9E"/>
<path d="M24.718 26.1377C24.6332 26.137 24.5488 26.1497 24.468 26.1752L20.7617 27.2627L21.9992 27.5127C22.1196 27.5369 22.2303 27.5955 22.318 27.6815L22.8805 28.244L25.4992 27.4752C25.5773 27.3446 25.6203 27.1961 25.6242 27.044C25.6241 26.8037 25.5285 26.5733 25.3586 26.4033C25.1887 26.2334 24.9583 26.1379 24.718 26.1377Z" fill="#768A9E"/>
<path d="M31.082 28.7937C31.1789 28.66 31.2366 28.502 31.2485 28.3374C31.2604 28.1727 31.2261 28.008 31.1494 27.8618C31.0727 27.7157 30.9568 27.5938 30.8145 27.51C30.6723 27.4261 30.5096 27.3837 30.3445 27.3874C30.2597 27.3867 30.1754 27.3994 30.0945 27.4249L23.7383 29.2937C23.7383 29.3249 23.7508 29.3499 23.7508 29.3749V30.4687L31.082 28.7937Z" fill="#768A9E"/>
<path d="M35 33.2939C34.9997 33.4802 34.9419 33.6617 34.8345 33.8139C34.7271 33.966 34.5754 34.0813 34.4 34.1439L24.8938 37.5002H15.725L8.32501 35.0314C8.26008 35.0119 8.19279 35.0014 8.12501 35.0002H6.25001V36.8752C6.24905 37.0059 6.20769 37.1331 6.13161 37.2394C6.05552 37.3457 5.94843 37.4259 5.82501 37.4689L2.07501 38.7189C2.01008 38.7385 1.94279 38.749 1.87501 38.7502C1.74432 38.7521 1.61674 38.7103 1.51251 38.6314C1.43109 38.5746 1.36468 38.4988 1.31896 38.4106C1.27324 38.3224 1.24958 38.2245 1.25001 38.1252V24.3752C1.24958 24.2759 1.27324 24.1779 1.31896 24.0898C1.36468 24.0016 1.43109 23.9258 1.51251 23.8689C1.59264 23.8109 1.68542 23.7726 1.78322 23.7574C1.88101 23.7422 1.98101 23.7504 2.07501 23.7814L5.82501 25.0314C5.94843 25.0745 6.05552 25.1547 6.13161 25.261C6.20769 25.3672 6.24905 25.4945 6.25001 25.6252V27.9252L8.86876 26.8752H12.4375L21.5688 28.7002L22.5 29.6314V30.6252H14.375C14.2372 30.6256 14.1033 30.6716 13.9943 30.756C13.8853 30.8404 13.8073 30.9584 13.7723 31.0918C13.7374 31.2251 13.7475 31.3663 13.8011 31.4933C13.8547 31.6203 13.9488 31.726 14.0688 31.7939L19.6938 34.9189C19.7866 34.9733 19.8924 35.0014 20 35.0002H25C25.0593 35.0015 25.1184 34.9931 25.175 34.9752L33.8438 32.4252C33.9785 32.3858 34.1206 32.3784 34.2587 32.4036C34.3968 32.4288 34.5271 32.4858 34.6394 32.5701C34.7516 32.6544 34.8426 32.7637 34.9052 32.8894C34.9678 33.015 35.0003 33.1536 35 33.2939Z" fill="#768A9E"/>
<path d="M20.625 7.5V6.875H18.125V8.125H20C20.1658 8.125 20.3247 8.05915 20.4419 7.94194C20.5592 7.82473 20.625 7.66576 20.625 7.5Z" fill="#768A9E"/>
<path d="M6.93125 14.375C7.07815 13.5016 7.5298 12.7084 8.20603 12.1365C8.88226 11.5645 9.7393 11.2506 10.625 11.2506C11.5107 11.2506 12.3677 11.5645 13.044 12.1365C13.7202 12.7084 14.1719 13.5016 14.3187 14.375H16.875V6.875H6.05L4.95625 9.60625C4.90994 9.72254 4.82977 9.82225 4.72614 9.89245C4.6225 9.96265 4.50017 10.0001 4.375 10H2.5V11.0625L4.7125 14.375H6.93125Z" fill="#768A9E"/>
<path d="M31.4313 9.81875L28.4937 6.875H21.875V7.5C21.8735 7.99682 21.6755 8.47288 21.3242 8.82419C20.9729 9.1755 20.4968 9.37352 20 9.375H18.125V14.375H26.3062C26.4531 13.5016 26.9048 12.7084 27.581 12.1365C28.2573 11.5645 29.1143 11.2506 30 11.2506C30.8857 11.2506 31.7427 11.5645 32.419 12.1365C33.0952 12.7084 33.5469 13.5016 33.6938 14.375H37.5V13.75C37.5005 12.4177 37.1116 11.1143 36.3812 10H31.875C31.7093 9.99877 31.5504 9.93387 31.4313 9.81875Z" fill="#768A9E"/>
<path d="M30 17.5C31.3807 17.5 32.5 16.3807 32.5 15C32.5 13.6193 31.3807 12.5 30 12.5C28.6193 12.5 27.5 13.6193 27.5 15C27.5 16.3807 28.6193 17.5 30 17.5Z" fill="#768A9E"/>
<path d="M29.107 5.625H5.89453L7.47578 4.58125C7.83203 4.34375 8.26328 4.075 8.75078 3.8C11.4044 2.22264 14.4152 1.3452 17.5008 1.25C20.5863 1.3452 23.5972 2.22264 26.2508 3.8C26.7383 4.075 27.1695 4.34375 27.5258 4.58125L29.107 5.625Z" fill="#768A9E"/>
<path d="M4.7 6.875H3.125C2.95924 6.875 2.80027 6.94085 2.68306 7.05806C2.56585 7.17527 2.5 7.33424 2.5 7.5V8.75H3.95L4.7 6.875Z" fill="#768A9E"/>
<path d="M10.625 17.5C12.0057 17.5 13.125 16.3807 13.125 15C13.125 13.6193 12.0057 12.5 10.625 12.5C9.24429 12.5 8.125 13.6193 8.125 15C8.125 16.3807 9.24429 17.5 10.625 17.5Z" fill="#768A9E"/>
<path d="M35.3309 8.75C34.0586 7.54775 32.3751 6.87702 30.6246 6.875H30.2559L32.1309 8.75H35.3309Z" fill="#768A9E"/>
</svg>
