<svg width="38" height="35" viewBox="0 0 38 35" fill="none" xmlns="http://www.w3.org/2000/svg">
<path d="M33.0934 25.2627C33.0086 25.262 32.9242 25.2747 32.8434 25.3002L30.6309 25.9502L22.2621 27.8627V27.8502C22.217 27.8621 22.171 27.8705 22.1246 27.8752H16.5059L16.0684 28.0315L19.1621 29.7502H23.9121L32.4871 27.2252C32.6559 27.1764 32.8302 27.1491 33.0059 27.144L33.4246 27.0127C33.5956 26.9483 33.7426 26.8327 33.8455 26.6817C33.9484 26.5307 34.0022 26.3517 33.9996 26.169C33.9994 25.9287 33.9039 25.6983 33.734 25.5283C33.5641 25.3584 33.3337 25.2629 33.0934 25.2627Z" fill="#768A9E"/>
<path d="M37.75 15.375C37.75 16.2038 37.4208 16.9987 36.8347 17.5847C36.2487 18.1708 35.4538 18.5 34.625 18.5H3.375C2.5462 18.5 1.75134 18.1708 1.16529 17.5847C0.57924 16.9987 0.25 16.2038 0.25 15.375C0.25 15.2092 0.315848 15.0503 0.433058 14.9331C0.550268 14.8158 0.70924 14.75 0.875 14.75H37.125C37.2908 14.75 37.4497 14.8158 37.5669 14.9331C37.6842 15.0503 37.75 15.2092 37.75 15.375Z" fill="#768A9E"/>
<path d="M23.718 22.1377C23.6332 22.137 23.5488 22.1497 23.468 22.1752L19.7617 23.2627L20.9992 23.5127C21.1196 23.5369 21.2303 23.5955 21.318 23.6815L21.8805 24.244L24.4992 23.4752C24.5773 23.3446 24.6203 23.1961 24.6242 23.044C24.6241 22.8037 24.5285 22.5733 24.3586 22.4033C24.1887 22.2334 23.9583 22.1379 23.718 22.1377Z" fill="#768A9E"/>
<path d="M30.082 24.7937C30.1789 24.66 30.2366 24.502 30.2485 24.3374C30.2604 24.1727 30.2261 24.008 30.1494 23.8618C30.0727 23.7157 29.9568 23.5938 29.8145 23.51C29.6723 23.4261 29.5096 23.3837 29.3445 23.3874C29.2597 23.3867 29.1754 23.3994 29.0945 23.4249L22.7383 25.2937C22.7383 25.3249 22.7508 25.3499 22.7508 25.3749V26.4687L30.082 24.7937Z" fill="#768A9E"/>
<path d="M34 29.2939C33.9997 29.4802 33.9419 29.6617 33.8345 29.8139C33.7271 29.966 33.5754 30.0813 33.4 30.1439L23.8938 33.5002H14.725L7.32501 31.0314C7.26008 31.0119 7.19279 31.0014 7.12501 31.0002H5.25001V32.8752C5.24905 33.0059 5.20769 33.1331 5.13161 33.2394C5.05552 33.3457 4.94843 33.4259 4.82501 33.4689L1.07501 34.7189C1.01008 34.7385 0.942788 34.749 0.875006 34.7502C0.74432 34.7521 0.616745 34.7103 0.512506 34.6314C0.43109 34.5746 0.364679 34.4988 0.318961 34.4106C0.273243 34.3224 0.249582 34.2245 0.250006 34.1252V20.3752C0.249582 20.2759 0.273243 20.1779 0.318961 20.0898C0.364679 20.0016 0.43109 19.9258 0.512506 19.8689C0.592641 19.8109 0.685423 19.7726 0.783215 19.7574C0.881008 19.7422 0.981015 19.7504 1.07501 19.7814L4.82501 21.0314C4.94843 21.0745 5.05552 21.1547 5.13161 21.261C5.20769 21.3672 5.24905 21.4945 5.25001 21.6252V23.9252L7.86876 22.8752H11.4375L20.5688 24.7002L21.5 25.6314V26.6252H13.375C13.2372 26.6256 13.1033 26.6716 12.9943 26.756C12.8853 26.8404 12.8073 26.9584 12.7723 27.0918C12.7374 27.2251 12.7475 27.3663 12.8011 27.4933C12.8547 27.6203 12.9488 27.726 13.0688 27.7939L18.6938 30.9189C18.7866 30.9733 18.8924 31.0014 19 31.0002H24C24.0593 31.0015 24.1184 30.9931 24.175 30.9752L32.8438 28.4252C32.9785 28.3858 33.1206 28.3784 33.2587 28.4036C33.3968 28.4288 33.5271 28.4858 33.6394 28.5701C33.7516 28.6544 33.8426 28.7637 33.9052 28.8894C33.9678 29.015 34.0003 29.1536 34 29.2939Z" fill="#768A9E"/>
<path d="M26.8027 5.18604C26.3972 5.18604 26.1582 5.41049 26.1582 5.91019V7.8292C26.1582 8.32884 26.3973 8.55336 26.8027 8.55336C27.2082 8.55336 27.4545 8.32884 27.4545 7.8292V5.91019C27.4545 5.41049 27.2083 5.18604 26.8027 5.18604Z" fill="#768A9E"/>
<path d="M30.9219 5.18604C30.5163 5.18604 30.2773 5.41049 30.2773 5.91019V7.8292C30.2773 8.32884 30.5164 8.55336 30.9219 8.55336C31.3274 8.55336 31.5737 8.32884 31.5737 7.8292V5.91019C31.5737 5.41049 31.3274 5.18604 30.9219 5.18604Z" fill="#768A9E"/>
<path d="M22.6816 5.18604C22.2761 5.18604 22.0371 5.41049 22.0371 5.91019V7.8292C22.0371 8.32884 22.2762 8.55336 22.6816 8.55336C23.0871 8.55336 23.3334 8.32884 23.3334 7.8292V5.91019C23.3334 5.41049 23.0873 5.18604 22.6816 5.18604Z" fill="#768A9E"/>
<path d="M32.5925 0.854004H5.40743C3.5286 0.854004 2 2.38254 2 4.26137V9.5947C2 11.4735 3.5286 13.0021 5.40743 13.0021H32.5926C34.4714 13.0021 36 11.4735 36 9.5947V4.26137C35.9999 2.38254 34.4713 0.854004 32.5925 0.854004ZM10.037 1.96511C10.4461 1.96511 10.7778 2.29674 10.7778 2.70587C10.7778 3.115 10.4461 3.44663 10.037 3.44663C9.62787 3.44663 9.29624 3.115 9.29624 2.70587C9.29631 2.29674 9.62794 1.96511 10.037 1.96511ZM8.70775 9.42211L7.6505 7.62616L6.59318 9.42205C6.54251 9.50167 6.44111 9.53792 6.32523 9.53792C6.01392 9.53792 5.57212 9.29169 5.57212 8.98031C5.57212 8.9151 5.59383 8.84996 5.63733 8.77757L6.89015 6.84403L5.688 4.91772C5.63726 4.8381 5.61555 4.76565 5.61555 4.6932C5.61555 4.38913 6.02826 4.15737 6.34694 4.15737C6.50619 4.15737 6.61489 4.21528 6.68734 4.3457L7.65043 6.02584L8.61358 4.3457C8.68603 4.21535 8.79461 4.15737 8.95398 4.15737C9.27267 4.15737 9.68538 4.38913 9.68538 4.6932C9.68538 4.76572 9.66366 4.8381 9.61293 4.91772L8.41078 6.84403L9.6636 8.77757C9.70703 8.85002 9.72881 8.9151 9.72881 8.98031C9.72881 9.29169 9.28701 9.53792 8.97563 9.53792C8.85982 9.53792 8.75125 9.50173 8.70775 9.42211ZM10.037 11.9651C9.62787 11.9651 9.29624 11.6334 9.29624 11.2243C9.29624 10.8152 9.62787 10.4835 10.037 10.4835C10.4461 10.4835 10.7778 10.8152 10.7778 11.2243C10.7778 11.6334 10.4461 11.9651 10.037 11.9651ZM14.0086 4.74394L12.5167 7.22786C12.5022 7.24957 12.4877 7.28576 12.4877 7.32919V9.14686C12.4877 9.37855 12.2053 9.49443 11.9228 9.49443C11.6403 9.49443 11.358 9.37855 11.358 9.14686V7.32919C11.358 7.28576 11.3435 7.24957 11.329 7.22786L9.83001 4.74394C9.81547 4.71499 9.81547 4.68603 9.81547 4.66432C9.81547 4.39637 10.2717 4.20087 10.5831 4.20087C10.7641 4.20087 10.8294 4.27332 10.909 4.41084L11.9228 6.27194L12.9294 4.41084C13.0019 4.27332 13.0743 4.20087 13.2552 4.20087C13.5666 4.20087 14.0229 4.39643 14.0229 4.66432C14.0231 4.68597 14.0231 4.71499 14.0086 4.74394ZM17.5352 9.4945H14.4503C14.2185 9.4945 14.1244 9.37138 14.1244 9.19759C14.1244 9.08171 14.1679 8.93688 14.2475 8.79922L16.2897 5.18567H14.6095C14.3922 5.18567 14.2691 4.95391 14.2691 4.6932C14.2691 4.45421 14.3705 4.2008 14.6095 4.2008H17.4048C17.6221 4.2008 17.7306 4.32392 17.7306 4.49777C17.7306 4.61358 17.6872 4.75118 17.6076 4.89607L15.5654 8.50963H17.5351C17.7525 8.50963 17.8756 8.77034 17.8756 9.00209C17.8755 9.23378 17.7524 9.4945 17.5352 9.4945ZM24.4634 7.8289C24.4634 9.07448 23.6813 9.53792 22.6819 9.53792C21.6826 9.53792 20.9077 9.07448 20.9077 7.8289V5.9099C20.9077 4.66432 21.6826 4.20087 22.6819 4.20087C23.6813 4.20087 24.4634 4.66432 24.4634 5.9099V7.8289ZM25.028 7.8289V5.9099C25.028 4.66432 25.8029 4.20087 26.8022 4.20087C27.8016 4.20087 28.5837 4.66432 28.5837 5.9099V7.8289C28.5837 9.07448 27.8016 9.53792 26.8022 9.53792C25.8029 9.53792 25.028 9.07454 25.028 7.8289ZM27.9629 11.9651C27.5538 11.9651 27.2222 11.6334 27.2222 11.2243C27.2222 10.8152 27.5538 10.4835 27.9629 10.4835C28.3721 10.4835 28.7037 10.8152 28.7037 11.2243C28.7036 11.6334 28.372 11.9651 27.9629 11.9651ZM27.9629 3.44656C27.5538 3.44656 27.2222 3.11493 27.2222 2.7058C27.2222 2.29668 27.5538 1.96504 27.9629 1.96504C28.3721 1.96504 28.7037 2.29668 28.7037 2.7058C28.7036 3.11493 28.372 3.44656 27.9629 3.44656ZM32.7039 7.8289C32.7039 9.07448 31.9218 9.53792 30.9225 9.53792C29.9231 9.53792 29.1482 9.07448 29.1482 7.8289V5.9099C29.1482 4.66432 29.9231 4.20087 30.9225 4.20087C31.9218 4.20087 32.7039 4.66432 32.7039 5.9099V7.8289Z" fill="#768A9E"/>
</svg>
