<svg width="40" height="40" viewBox="0 0 40 40" fill="none" xmlns="http://www.w3.org/2000/svg">
<g clip-path="url(#clip0)">
<path d="M7.24239 15.397L7.58654 15.596V17.7801L6.01832 18.1721L9.65551 20.2939L9.62924 21.5692L9.57334 21.7645L11.7245 21.2856V20.7748C11.7245 19.8477 12.0989 18.9988 12.7122 18.3714L10.3458 17.7801L10.3431 15.5977L10.688 15.3983C11.7528 14.7817 12.4141 13.6381 12.4141 12.4141V11.2085C12.4141 9.26785 10.9149 7.64372 9.07193 7.58849C8.13813 7.55213 7.2397 7.90504 6.56452 8.55967C5.88935 9.21464 5.51758 10.0942 5.51758 11.0348V12.4141C5.51758 13.6381 6.17827 14.7817 7.24239 15.397Z" fill="#768A9E"/>
<path d="M12.3805 7.69531C14.0013 5.08621 16.8818 3.44828 19.9991 3.44828C23.0941 3.44828 25.9665 5.07105 27.592 7.65457C27.6196 7.62695 27.6439 7.59665 27.6722 7.56903C28.1018 7.15181 28.5955 6.83021 29.1279 6.60123L29.9102 4.76967L27.7095 2.56836L25.7702 3.83048L25.3991 3.60284C24.4694 3.03307 23.4645 2.61584 22.4129 2.36429L21.9879 2.26192L21.5087 0H18.4888L18.0102 2.26192L17.5859 2.36328C16.5343 2.61517 15.5294 3.03239 14.5997 3.60217L14.2286 3.82981L12.2893 2.56769L10.0859 4.77101L10.8598 6.61571C11.4309 6.87298 11.9468 7.24138 12.3805 7.69531Z" fill="#768A9E"/>
<path d="M0 15.8623V28.4684L2.95999 29.4554L5.46269 19.4449L0 15.8623Z" fill="#768A9E"/>
<path d="M28.2751 16.3709C26.9897 15.4732 26.2061 13.9925 26.2061 12.4138V11.0345C26.2061 10.2745 26.3846 9.54544 26.7129 8.88711C25.408 6.41169 22.8124 4.82764 19.9992 4.82764C17.1591 4.82764 14.5523 6.43324 13.2572 8.94267C13.597 9.62626 13.7923 10.3967 13.7923 11.2083V12.4138C13.7923 13.9925 13.008 15.4745 11.7227 16.3716V16.702L14.482 17.3926L17.2406 16.702V16.3709C15.9552 15.4732 15.1716 13.9925 15.1716 12.4138V11.0345C15.1716 9.71718 15.6922 8.48705 16.6378 7.56976C17.5827 6.65246 18.8273 6.17125 20.1474 6.20897C22.7275 6.28709 24.8268 8.52915 24.8268 11.2083V12.4138C24.8268 13.9925 24.0425 15.4745 22.7571 16.3716V16.702L25.5164 17.3926L28.2751 16.702V16.3709Z" fill="#768A9E"/>
<path d="M8.27573 21.0858L6.70279 20.1685L4.27148 29.8927L5.62891 30.3449H5.68683L8.27573 21.2828V21.0858Z" fill="#768A9E"/>
<path d="M14.6704 18.7671C13.7484 18.9981 13.1035 19.8238 13.1035 20.7748V20.9789L13.4989 20.8913C14.9553 20.5687 16.4952 20.6367 17.918 21.0927L21.0399 22.0904C21.3854 22.1036 21.7296 22.1416 22.063 22.2369L26.3036 23.4485H26.7262L26.8966 23.359V20.7748C26.8966 19.8238 26.2518 18.9981 25.3297 18.7671L21.3801 17.7801L21.3774 15.5977L21.7222 15.3983C22.787 14.7817 23.4483 13.6381 23.4483 12.4141V11.2085C23.4483 9.26785 21.9492 7.64372 20.1061 7.58849C19.1754 7.55213 18.2739 7.90504 17.5987 8.55967C16.9236 9.21464 16.5518 10.0942 16.5518 11.0348V12.4141C16.5518 13.6381 17.2125 14.7817 18.2766 15.397L18.6208 15.596V17.7801L14.6704 18.7671Z" fill="#768A9E"/>
<path d="M27.5871 11.0348V12.4141C27.5871 13.6381 28.2478 14.7817 29.3119 15.397L29.656 15.596V17.7801L27.2891 18.3714C27.9016 18.9988 28.2767 19.847 28.2767 20.7748V22.6326L35.8609 18.6408L32.4153 17.7801L32.4126 15.5977L32.7575 15.3983C33.8223 14.7817 34.4836 13.6381 34.4836 12.4141V11.2085C34.4836 9.26785 32.9844 7.64372 31.1414 7.58849C30.2056 7.55213 29.3099 7.90504 28.634 8.55967C27.9588 9.21464 27.5871 10.0942 27.5871 11.0348Z" fill="#768A9E"/>
<path d="M21.5127 27.2557C21.0671 26.855 20.3748 26.7866 19.8589 27.0964L17.2905 28.6364C16.9336 28.8516 16.5218 28.9654 16.1032 28.9654C14.8293 28.9654 13.7928 27.9289 13.7928 26.655V26.5186C13.7928 25.6383 14.2817 24.8466 15.07 24.4523L18.5143 22.7302L17.4983 22.4052C16.3066 22.024 15.0189 21.9648 13.7982 22.2379L9.14231 23.273L7.28516 29.7729L9.40396 31.0441C9.46457 30.9626 9.52452 30.8805 9.59692 30.8081L10.8092 29.5958C11.2086 29.195 11.7632 28.9654 12.3299 28.9654C13.4907 28.9654 14.4343 29.8908 14.4747 31.0421C15.5997 31.0818 16.5039 31.986 16.5436 33.1111C17.6687 33.1508 18.5729 34.0549 18.6126 35.18C19.4285 35.209 20.1253 35.6922 20.4644 36.3852L22.0036 37.6682C22.206 37.8369 22.464 37.9309 22.7287 37.9309C23.1253 37.9309 23.4479 37.6083 23.4479 37.2116C23.4479 36.9971 23.3533 36.7957 23.1893 36.659L19.5575 33.633L20.4411 32.5729L24.1871 35.6942C24.3161 35.8027 24.4797 35.8619 24.6471 35.8619H24.7976C25.1943 35.8619 25.5169 35.5393 25.5169 35.1426C25.5169 34.9281 25.4223 34.7268 25.2583 34.59L21.6265 31.564L22.5101 30.504L26.25 33.6205C26.3823 33.7317 26.5521 33.793 26.7245 33.793H26.8437C27.2535 33.793 27.5859 33.4606 27.5859 33.0514C27.5859 32.8413 27.4963 32.6406 27.3404 32.4999L21.5127 27.2557Z" fill="#768A9E"/>
<path d="M27.0664 24.8275L26.0174 24.8012L21.6835 23.5633C20.974 23.3593 20.1924 23.4337 19.5341 23.7627L15.6871 25.6862C15.3692 25.8455 15.1719 26.164 15.1719 26.5186V26.655C15.1719 27.1682 15.5891 27.5861 16.103 27.5861C16.2713 27.5861 16.436 27.5406 16.5801 27.4544L19.1492 25.9138C19.5816 25.6539 20.0746 25.5171 20.578 25.5171C21.2656 25.5171 21.9256 25.7704 22.4362 26.2304L28.2622 31.4745C28.3036 31.5116 28.343 31.5496 28.3807 31.5897L39.9995 25.7805V18.0205L27.0664 24.8275Z" fill="#768A9E"/>
<path d="M20.4933 38.2061C20.3873 38.4428 20.2438 38.662 20.0589 38.8469L19.541 39.3648L20.0569 39.8197C20.1879 39.9359 20.3569 39.9999 20.5321 39.9999H20.6597C21.0564 39.9999 21.379 39.6773 21.379 39.2806C21.379 39.0661 21.2843 38.8647 21.1203 38.728L20.4933 38.2061Z" fill="#768A9E"/>
<path d="M18.5362 36.5518C18.3328 36.5518 18.1335 36.6339 17.9894 36.7781L16.7771 37.9903C16.6329 38.1345 16.5508 38.3338 16.5508 38.5372C16.5508 38.9635 16.8976 39.3104 17.3239 39.3104C17.5273 39.3104 17.7267 39.2282 17.8708 39.0841L19.0831 37.8718C19.2272 37.7277 19.3094 37.5283 19.3094 37.3249C19.3094 36.8986 18.9626 36.5518 18.5362 36.5518Z" fill="#768A9E"/>
<path d="M15.1727 33.1867C15.1727 32.7604 14.8258 32.4136 14.3995 32.4136C14.1961 32.4136 13.9968 32.4957 13.8526 32.6399L12.6404 33.8522C12.4962 33.9963 12.4141 34.1956 12.4141 34.399C12.4141 34.8254 12.7609 35.1722 13.1872 35.1722C13.3906 35.1722 13.59 35.09 13.7341 34.9459L14.9464 33.7336C15.0905 33.5895 15.1727 33.3901 15.1727 33.1867Z" fill="#768A9E"/>
<path d="M17.241 35.2561C17.241 34.8298 16.8942 34.4829 16.4679 34.4829C16.2645 34.4829 16.0651 34.5651 15.921 34.7092L14.7087 35.9215C14.5646 36.0656 14.4824 36.265 14.4824 36.4684C14.4824 36.8947 14.8293 37.2415 15.2556 37.2415C15.459 37.2415 15.6583 37.1594 15.8025 37.0152L17.0148 35.803C17.1589 35.6588 17.241 35.4595 17.241 35.2561Z" fill="#768A9E"/>
<path d="M13.1043 31.1179C13.1043 30.6916 12.7575 30.3447 12.3311 30.3447C12.1278 30.3447 11.9284 30.4269 11.7843 30.571L10.572 31.7833C10.4279 31.9274 10.3457 32.1268 10.3457 32.3302C10.3457 32.7565 10.6926 33.1033 11.1189 33.1033C11.3223 33.1033 11.5216 33.0212 11.6657 32.8771L12.878 31.6648C13.0222 31.5206 13.1043 31.3213 13.1043 31.1179Z" fill="#768A9E"/>
</g>
<defs>
<clipPath id="clip0">
<rect width="40" height="40" fill="white"/>
</clipPath>
</defs>
</svg>
