<svg width="40" height="40" viewBox="0 0 40 40" fill="none" xmlns="http://www.w3.org/2000/svg">
<g clip-path="url(#clip0)">
<path d="M9.45312 21.4844H30.5469V23.8278H9.45312V21.4844Z" fill="#768A9E"/>
<path d="M9.45312 26.1714H30.5469V28.5151H9.45312V26.1714Z" fill="#768A9E"/>
<path d="M9.45312 30.8589H30.5469V39.9995H9.45312V30.8589Z" fill="#768A9E"/>
<path d="M38.8279 37.6559H37.5779V10.7831L38.3268 11.1374C38.9119 11.4139 39.6107 11.1642 39.8875 10.5792C40.164 9.9939 39.9141 9.29535 39.329 9.01856L20.5012 0.11261C20.1832 -0.0378413 19.8149 -0.0375362 19.4972 0.113526L0.669373 9.05853C0.0846565 9.33655 -0.164062 10.0354 0.113648 10.6198C0.314454 11.0422 0.734681 11.2891 1.17322 11.2891C1.34168 11.2891 1.51288 11.2527 1.67523 11.1755L2.4223 10.8206V37.6559H1.1723C0.525025 37.6559 0.000427926 38.1805 0.000427926 38.8278C0.000427926 39.4751 0.525025 39.9997 1.1723 39.9997H7.1095V20.3125C7.1095 19.6652 7.6344 19.1406 8.28137 19.1406H31.7189C32.3658 19.1406 32.8907 19.6652 32.8907 20.3125V39.9997H38.8279C39.4752 39.9997 39.9998 39.4751 39.9998 38.8278C39.9998 38.1805 39.4752 37.6559 38.8279 37.6559ZM27.0237 15.8594H25.93C24.4169 15.8594 23.13 14.8764 22.6719 13.5159H17.4733C17.0152 14.8764 15.7283 15.8594 14.2152 15.8594H13.1215C12.4742 15.8594 11.9496 15.3348 11.9496 14.6875C11.9496 14.0402 12.4742 13.5156 13.1215 13.5156H14.2152C14.8185 13.5156 15.3093 13.0249 15.3093 12.4216V12.2662C15.3093 11.6629 14.8185 11.1722 14.2152 11.1722H13.1218C12.4745 11.1722 11.9499 10.6476 11.9499 10.0003C11.9499 9.35333 12.4745 8.82843 13.1218 8.82843H14.2152C15.7283 8.82843 17.0152 9.8114 17.4736 11.1722H22.6719C23.13 9.8114 24.4169 8.82843 25.9303 8.82843H27.0237C27.6707 8.82843 28.1956 9.35333 28.1956 10.0003C28.1956 10.6476 27.6707 11.1722 27.0237 11.1722H25.9303C25.327 11.1722 24.8362 11.6629 24.8362 12.2662V12.4216C24.8362 13.0249 25.327 13.5156 25.9303 13.5156H27.024C27.671 13.5156 28.1959 14.0402 28.1959 14.6875C28.1959 15.3348 27.671 15.8594 27.0237 15.8594Z" fill="#768A9E"/>
</g>
<defs>
<clipPath id="clip0">
<rect width="40" height="40" fill="white"/>
</clipPath>
</defs>
</svg>
