<svg width="40" height="40" viewBox="0 0 40 40" fill="none" xmlns="http://www.w3.org/2000/svg">
<g clip-path="url(#clip0)">
<path d="M39.8738 17.7796C39.8107 17.2174 39.1549 16.7945 38.5878 16.7945C36.7552 16.7945 35.1288 15.7188 34.4467 14.054C33.7504 12.3492 34.1997 10.3615 35.5651 9.10888C35.9951 8.71568 36.0475 8.0573 35.687 7.60027C34.7487 6.40909 33.6828 5.33295 32.5186 4.40038C32.0631 4.03503 31.3939 4.08589 30.9986 4.52337C29.8065 5.8436 27.6652 6.33419 26.0104 5.6438C24.289 4.91951 23.2025 3.1746 23.3092 1.30169C23.3443 0.713017 22.9139 0.201498 22.3273 0.133169C20.8333 -0.039817 19.326 -0.0448336 17.8276 0.121406C17.2485 0.18541 16.8184 0.68482 16.8376 1.26605C16.9025 3.12063 15.8037 4.83475 14.0989 5.53309C12.464 6.20099 10.3375 5.71403 9.1479 4.4054C8.75471 3.97432 8.09719 3.92138 7.6386 4.27894C6.44016 5.21947 5.35017 6.2963 4.40325 7.4778C4.03427 7.93707 4.08876 8.60272 4.52244 8.9973C5.9148 10.2582 6.3637 12.2631 5.64079 13.9878C4.95058 15.632 3.24338 16.6912 1.28916 16.6912C0.654996 16.6708 0.203677 17.0968 0.133617 17.6736C-0.042136 19.1756 -0.0440388 20.7069 0.125141 22.2212C0.188281 22.7858 0.863444 23.2051 1.43672 23.2051C3.17868 23.1609 4.85007 24.2386 5.55222 25.9454C6.25091 27.6502 5.80115 29.6371 4.43352 30.8914C4.00573 31.2846 3.95107 31.9414 4.31226 32.3979C5.24102 33.5817 6.308 34.6585 7.47565 35.599C7.93406 35.9682 8.60075 35.9165 8.9981 35.4785C10.1948 34.1551 12.3359 33.6654 13.9839 34.3572C15.7103 35.0796 16.7963 36.8243 16.6903 38.6977C16.6555 39.2864 17.0869 39.7995 17.6714 39.8663C18.436 39.9557 19.2046 40 19.9756 40C20.7073 40 21.4392 39.96 22.1711 39.8785C22.751 39.8145 23.1803 39.3146 23.1608 38.7332C23.0938 36.8795 24.1951 35.1652 25.8978 34.4682C27.5435 33.796 29.6605 34.288 30.8509 35.5947C31.2461 36.0249 31.8997 36.0772 32.3602 35.721C33.5565 34.7829 34.6444 33.7066 35.5955 32.522C35.9648 32.0636 35.9124 31.397 35.4763 31.0018C34.0843 29.7417 33.633 27.736 34.3559 26.013C35.0354 24.391 36.6791 23.3018 38.447 23.3018L38.6944 23.3084C39.2683 23.3549 39.7958 22.913 39.8651 22.3274C40.0418 20.824 40.0437 19.2944 39.8738 17.7796ZM19.9996 31.5302C13.6315 31.5302 8.46945 26.3682 8.46945 20.0002C8.46945 13.6323 13.6317 8.47021 19.9996 8.47021C26.3676 8.47021 31.5298 13.6323 31.5298 20.0002C31.5298 22.1617 30.9339 24.1834 29.8989 25.9122L24.8502 20.8633C25.2157 20.0014 25.4087 19.0671 25.4086 18.1029C25.4086 16.2148 24.6732 14.4398 23.3379 13.1048C22.003 11.7699 20.228 11.0347 18.3402 11.0347C17.7102 11.0347 17.0831 11.1185 16.4764 11.2837C16.2107 11.3561 15.9935 11.5751 15.9227 11.8414C15.8504 12.1136 15.9319 12.3927 16.1447 12.6056C16.1447 12.6056 18.6372 15.1174 19.4712 15.9512C19.5585 16.0385 19.5584 16.247 19.5461 16.322L19.5383 16.3769C19.4542 17.2937 19.2921 18.3942 19.1584 18.8172C19.1404 18.835 19.1235 18.85 19.1051 18.8684C19.0859 18.8876 19.0683 18.9061 19.0498 18.9251C18.6213 19.0626 17.5038 19.2266 16.5724 19.31L16.5726 19.305L16.5308 19.3156C16.5233 19.3164 16.5095 19.3175 16.4911 19.3175C16.3905 19.3175 16.2424 19.2893 16.1078 19.1548C15.2398 18.2868 12.845 15.9091 12.845 15.9091C12.6301 15.695 12.4097 15.65 12.2629 15.65C11.9205 15.65 11.614 15.8974 11.5175 16.2521C10.8582 18.6918 11.5571 21.316 13.3418 23.1008C14.677 24.4359 16.4522 25.1711 18.3404 25.1711C19.3046 25.1711 20.2389 24.9782 21.1005 24.6127L26.2041 29.7163C24.4123 30.8629 22.2846 31.5302 19.9996 31.5302Z" fill="#768A9E"/>
</g>
<defs>
<clipPath id="clip0">
<rect width="40" height="40" fill="white"/>
</clipPath>
</defs>
</svg>
