<svg width="40" height="40" viewBox="0 0 40 40" fill="none" xmlns="http://www.w3.org/2000/svg">
<g clip-path="url(#clip0)">
<path d="M23.8279 26.5122H23.8249C23.6169 26.5162 23.4505 26.6863 23.4512 26.8943C23.4518 27.1026 23.6196 27.2714 23.8279 27.2737H23.8306C24.0386 27.27 24.2053 27.1 24.2047 26.8916C24.2037 26.6836 24.0359 26.5146 23.8279 26.5122Z" fill="#768A9E"/>
<path d="M37.4062 30.63L38.5529 30.6216L38.5603 31.5981L37.4136 31.6065L37.4062 30.63Z" fill="#768A9E"/>
<path d="M19.4837 32.6164V29.7075H0V32.6164C0 35.2479 2.08934 37.3889 4.65773 37.3889H21.9421C20.3959 36.2919 19.479 34.5122 19.4837 32.6164Z" fill="#768A9E"/>
<path d="M23.1914 30.7348L24.338 30.7261L24.3451 31.703L23.1985 31.7114L23.1914 30.7348Z" fill="#768A9E"/>
<path d="M25.3758 31.7782C25.3792 32.3013 24.9585 32.7283 24.4355 32.7327L23.1228 32.7424H23.1154C22.5951 32.7424 22.1721 32.3224 22.1684 31.8017L22.1597 30.6829C21.5904 30.5132 21.1925 29.9996 21.171 29.4058L20.6379 25.4287C20.6349 25.4072 20.6336 25.3854 20.6332 25.364C20.6252 24.8081 20.8147 24.2676 21.1687 23.8392C21.4629 23.4813 21.8752 23.2401 22.3314 23.1596L23.9259 20.2849C24.5455 18.9916 25.4637 18.2757 26.5128 18.2677L29.8323 18.2435V5.35056C29.832 4.32568 30.2536 3.3461 30.9981 2.6416H8.54945C6.81404 2.64697 5.40337 4.04355 5.38055 5.77863L5.19336 28.6768H19.9985C20.2833 28.6768 20.5138 28.9076 20.5138 29.1921V32.6163C20.5138 35.2477 22.6035 37.3887 25.1719 37.3887C27.591 37.3887 29.6266 35.4621 29.8179 33V30.6859L25.3681 30.7185L25.3758 31.7782ZM24.5761 10.2253H25.813C26.0975 10.2253 26.3283 10.4561 26.3283 10.7406C26.3283 11.0254 26.0975 11.2559 25.813 11.2559H24.5761C24.2916 11.2559 24.0608 11.0254 24.0608 10.7406C24.0608 10.4561 24.2916 10.2253 24.5761 10.2253ZM15.1315 10.2253H22.4045C22.689 10.2253 22.9198 10.4561 22.9198 10.7406C22.9198 11.0254 22.689 11.2559 22.4045 11.2559H15.1311C14.8466 11.2559 14.6158 11.0254 14.6158 10.7406C14.6158 10.4561 14.8466 10.2253 15.1311 10.2253H15.1315ZM17.7388 16.8077C17.7388 17.0925 17.5083 17.323 17.2235 17.323H15.2163C14.9315 17.323 14.701 17.0925 14.701 16.8077C14.701 16.5232 14.9315 16.2924 15.2163 16.2924H17.2238C17.5083 16.2927 17.7388 16.5232 17.7388 16.8077ZM8.6833 10.2253H12.9891C13.2736 10.2253 13.5044 10.4561 13.5044 10.7406C13.5044 11.0254 13.2736 11.2559 12.9891 11.2559H8.6833C8.39882 11.2559 8.16801 11.0254 8.16801 10.7406C8.16801 10.4561 8.39882 10.2253 8.6833 10.2253ZM8.6833 16.2924H13.0012C13.2857 16.2924 13.5165 16.5232 13.5165 16.8077C13.5165 17.0925 13.2857 17.323 13.0012 17.323H8.6833C8.39882 17.323 8.16801 17.0925 8.16801 16.8077C8.16801 16.5232 8.39882 16.2924 8.6833 16.2924ZM17.7233 23.3907H8.6833C8.39882 23.3907 8.16801 23.1599 8.16801 22.8754C8.16801 22.5906 8.39882 22.3601 8.6833 22.3601H17.7233C18.0078 22.3601 18.2386 22.5906 18.2386 22.8754C18.2386 23.1599 18.0078 23.3907 17.7233 23.3907ZM19.4027 17.3233C19.1182 17.3233 18.8874 17.0928 18.8874 16.808C18.8874 16.5235 19.1182 16.2927 19.4027 16.2927H25.8133C26.0978 16.2927 26.3286 16.5235 26.3286 16.808C26.3286 17.0928 26.0978 17.3233 25.8133 17.3233H19.4027Z" fill="#768A9E"/>
<path d="M36.2805 5.35075C36.2721 3.86091 35.0621 2.65723 33.5719 2.65723C32.0821 2.65723 30.8717 3.86091 30.8633 5.35075V11.6708H36.2805V5.35075Z" fill="#768A9E"/>
<path d="M38.9712 24.0493H38.9671C38.9645 24.0493 38.9621 24.0493 38.9594 24.0493L22.6504 24.1694H22.6467C22.6316 24.1694 22.6165 24.1677 22.6014 24.1664C22.3498 24.1849 22.117 24.3066 21.9583 24.5025C21.7694 24.736 21.6657 25.0269 21.6641 25.3271L22.1968 29.2982C22.1995 29.3196 22.2012 29.3411 22.2012 29.3629C22.2042 29.5551 22.3608 29.7095 22.5534 29.7095L30.2723 29.6524C30.3109 29.6477 30.3502 29.6474 30.3887 29.6518L39.1533 29.587C39.3452 29.5833 39.4989 29.427 39.4999 29.2351C39.4999 29.2123 39.5012 29.1898 39.5039 29.1673L39.9997 25.1906C39.9924 24.8924 39.8823 24.6062 39.6884 24.3801C39.5096 24.1694 39.2473 24.0486 38.9712 24.0493ZM23.8379 28.3042H23.8275C23.0516 28.3018 22.4236 27.6738 22.4206 26.8982C22.4179 26.1222 23.0415 25.4898 23.8171 25.4815H23.8279C24.6035 25.4841 25.2315 26.1122 25.2345 26.8878C25.2372 27.6637 24.6136 28.2961 23.8379 28.3042ZM27.029 27.4494H27.0253C26.7421 27.4494 26.512 27.2209 26.51 26.9378L26.5036 26.1122C26.5016 25.8273 26.7307 25.5952 27.0152 25.5928C27.2997 25.5908 27.5322 25.82 27.5342 26.1044L27.5406 26.9304C27.5426 27.2149 27.3134 27.4473 27.029 27.4494ZM28.5584 27.438H28.5547C28.2716 27.438 28.0414 27.2098 28.0394 26.9267L28.0334 26.1007C28.031 25.8163 28.2602 25.5838 28.5446 25.5818H28.5487C28.8318 25.5818 29.0619 25.8102 29.064 26.0934L29.07 26.919C29.072 27.2035 28.8432 27.4359 28.5584 27.438ZM30.0878 27.4269H30.0841C29.801 27.4269 29.5709 27.1984 29.5688 26.9153L29.5625 26.0897C29.5605 25.8052 29.7896 25.5727 30.0741 25.5707C30.3585 25.5684 30.591 25.7975 30.593 26.082L30.5994 26.9079C30.6014 27.1924 30.3726 27.4249 30.0878 27.4272V27.4269ZM31.6172 27.4155H31.6136C31.3304 27.4155 31.1003 27.187 31.0983 26.9042L31.0919 26.0783C31.0899 25.7938 31.319 25.5613 31.6035 25.5593C31.8883 25.5573 32.1205 25.7861 32.1225 26.0709L32.1288 26.8965C32.1309 27.181 31.9017 27.4135 31.6172 27.4155ZM33.1467 27.4044H33.1426C32.8598 27.4044 32.6297 27.1759 32.6274 26.8928L32.6213 26.0672C32.6193 25.7824 32.8484 25.5502 33.1329 25.5479H33.1369C33.4201 25.5479 33.6499 25.7763 33.6522 26.0595L33.6583 26.8851C33.6603 27.1696 33.4312 27.4021 33.1467 27.4044ZM34.6761 27.393H34.6724C34.3893 27.393 34.1591 27.1645 34.1571 26.8814L34.1507 26.0558C34.1487 25.7713 34.3779 25.5388 34.6623 25.5368C34.9468 25.5345 35.1793 25.7636 35.1813 26.0481L35.1877 26.874C35.1894 27.1585 34.9606 27.3907 34.6761 27.3927V27.393ZM38.8655 27.7801C38.6032 28.0475 38.2449 28.1991 37.8705 28.2008H37.8601C37.1875 28.2008 36.6084 27.7265 36.4759 27.0673C36.3437 26.408 36.6946 25.7468 37.3149 25.4872C37.9352 25.2275 38.6525 25.4415 39.0292 25.9984C39.4059 26.5557 39.3375 27.3011 38.8655 27.7801Z" fill="#768A9E"/>
<path d="M37.861 26.4087H37.8579C37.6476 26.4094 37.4778 26.5805 37.4785 26.7908C37.4792 27.0012 37.6503 27.1709 37.8606 27.1702H37.864C38.0743 27.1696 38.2441 26.9985 38.2434 26.7881C38.2427 26.5778 38.0716 26.4077 37.8613 26.4087H37.861Z" fill="#768A9E"/>
<path d="M37.0665 23.032L38.1004 23.0242L36.8062 20.6796C36.2328 19.6692 35.732 19.2344 35.1365 19.2344H35.1275L26.5208 19.2978C25.662 19.3042 25.1048 20.2052 24.8495 20.7417C24.8451 20.7514 24.8401 20.7611 24.8351 20.7702L23.5254 23.1313L32.5416 23.0648C32.7513 21.9863 33.692 21.205 34.7903 21.1969C35.889 21.1889 36.8411 21.9561 37.0665 23.0316V23.032Z" fill="#768A9E"/>
<path d="M34.7985 22.2275C34.2698 22.2326 33.7988 22.5624 33.6133 23.0575L35.9972 23.0401C35.8063 22.5503 35.3343 22.2275 34.8086 22.2279L34.7985 22.2275Z" fill="#768A9E"/>
</g>
<defs>
<clipPath id="clip0">
<rect width="40" height="40" fill="white"/>
</clipPath>
</defs>
</svg>
