<svg width="40" height="40" viewBox="0 0 40 40" fill="none" xmlns="http://www.w3.org/2000/svg">
<path d="M39.9999 18.8876C39.9999 18.3584 39.5709 17.9294 39.0418 17.9294H36.4013C35.8722 17.9294 35.4431 18.3583 35.4431 18.8876V20.0737L35.2459 20.2818L33.7998 12.5293C33.7054 12.0231 33.2636 11.6562 32.7488 11.6562H17.5768L18.5701 13.7944H21.7041C21.5604 14.0276 21.5754 14.2212 21.5754 14.3873C21.5754 14.8644 21.9621 15.2511 22.4392 15.2511H25.1974C25.6745 15.2511 26.0611 14.8644 26.0611 14.3873C26.0611 14.2269 26.0774 14.0298 25.9324 13.7944H31.8608L33.211 21.0331H31.632C31.5027 19.1993 29.9704 17.7206 28.1042 17.7206C26.2381 17.7206 24.7059 19.1992 24.5765 21.0331C16.409 21.0423 14.4253 21.0331 14.4253 21.0331L14.7664 19.2043L13.4375 19.4907C13.4375 20.1683 13.4375 24.7503 13.4375 25.4066C13.8405 24.9906 14.4044 24.7316 15.0292 24.7316C16.2641 24.7316 17.2461 25.7367 17.2461 26.9498C17.2461 28.1749 16.2536 29.168 15.0292 29.168C14.4045 29.168 13.8405 28.909 13.4375 28.493V36.8313C13.8814 37.218 14.4612 37.4528 15.0962 37.4528C16.4919 37.4528 17.6233 36.3214 17.6233 34.9258V32.6577H19.9065V33.5143C19.9065 33.9928 20.2944 34.3807 20.7729 34.3807H26.8634C27.3418 34.3807 27.7298 33.9928 27.7298 33.5143V32.6577H30.0131V34.9258C30.0131 36.3214 31.1445 37.4528 32.5401 37.4528C33.9357 37.4528 35.0671 36.3214 35.0671 34.9258V32.6577H35.5595C36.4946 32.6577 37.2526 31.8997 37.2526 30.9645V25.531C37.2526 24.1766 36.6566 22.9621 35.7137 22.133L36.6985 21.0946H39.0419C39.571 21.0946 40 20.6656 40 20.1364V18.8874H39.9999V18.8876ZM26.3109 30.8823H21.3252C20.8922 30.8823 20.5412 30.5313 20.5412 30.0983C20.5412 29.6653 20.8922 29.3143 21.3252 29.3143H26.3109C26.7439 29.3143 27.0949 29.6652 27.0949 30.0983C27.0949 30.5313 26.7439 30.8823 26.3109 30.8823ZM27.6427 27.8088H19.9934C19.5604 27.8088 19.2094 27.4579 19.2094 27.0249C19.2094 26.5919 19.5604 26.2409 19.9934 26.2409H27.6427C28.0756 26.2409 28.4267 26.5918 28.4267 27.0249C28.4267 27.4579 28.0756 27.8088 27.6427 27.8088ZM26.3684 21.033C26.4909 20.1837 27.2214 19.5024 28.1041 19.5024C28.9868 19.5024 29.7174 20.1836 29.8399 21.033H26.3684ZM32.6071 29.168C31.3827 29.168 30.3902 28.1749 30.3902 26.9498C30.3902 25.7357 31.3734 24.7316 32.6071 24.7316C33.8315 24.7316 34.824 25.7247 34.824 26.9498C34.8239 28.166 33.8385 29.168 32.6071 29.168Z" fill="#768A9E"/>
<path d="M11.8375 19.8349L11.1049 19.9927C10.3045 20.1653 9.4849 19.9976 8.8206 19.5417C8.57193 19.6658 8.29693 19.7309 8.01842 19.7309C7.38194 19.7309 6.78702 19.3897 6.46569 18.8405L3.70703 14.1255C3.70703 14.1255 3.70773 37.334 3.70773 37.4838C3.70773 38.5011 4.53234 39.3257 5.54968 39.3257C6.56702 39.3257 7.39163 38.5011 7.39163 37.4838V22.7608H8.18693V37.4837C8.18693 38.501 9.01154 39.3256 10.0289 39.3256C11.0462 39.3256 11.8708 38.501 11.8708 37.4837C11.8709 37.4838 11.8375 20.6607 11.8375 19.8349Z" fill="#768A9E"/>
<path d="M17.8694 15.4469C17.8283 15.3583 15.5081 10.3904 15.5081 10.3904C14.8363 8.96947 13.3867 8.05127 11.8149 8.05127H3.66079C1.6679 8.05127 0.0100991 9.67259 2.10044e-05 11.6656V22.9422C-0.00427585 23.79 0.65119 24.4806 1.49892 24.4849C1.5015 24.4849 1.50416 24.4849 1.50673 24.4849C2.35079 24.4849 3.07501 23.8028 3.07923 22.9576V11.6809V11.6808C3.08009 11.513 3.23555 11.3774 3.40352 11.3779C3.57133 11.3784 3.70719 11.5146 3.70719 11.6825V12.1974H3.70727C4.01407 11.7123 4.05993 11.7589 7.34937 9.83439C8.20647 9.3329 9.30897 9.62236 9.80983 10.4785L9.94576 10.7109C10.8536 10.1799 11.9283 10.4067 12.5062 11.3944C13.0611 12.3429 12.704 11.6416 14.1747 14.7526L10.1621 15.6173C9.33334 15.7958 8.80639 16.6123 8.98483 17.4411C9.16342 18.2698 9.97998 18.7968 10.8087 18.6183L16.7124 17.3462C17.5509 17.1655 18.1022 16.3133 17.8694 15.4469Z" fill="#768A9E"/>
<path d="M7.78866 7.03679C9.54561 7.03679 10.9699 5.6125 10.9699 3.85555C10.9699 2.09861 9.54561 0.674316 7.78866 0.674316C6.03171 0.674316 4.60742 2.09861 4.60742 3.85555C4.60742 5.6125 6.03171 7.03679 7.78866 7.03679Z" fill="#768A9E"/>
<path d="M7.54632 16.9941L6.32773 14.9113C5.82577 14.0533 6.11382 12.9528 6.97187 12.4508L8.81827 11.3705L8.68233 11.1381C8.54514 10.9035 8.24374 10.8248 8.00936 10.962L4.97789 12.7356C4.74343 12.8728 4.66461 13.1741 4.80179 13.4085L7.59389 18.1808C7.65077 18.278 7.736 18.3484 7.8328 18.3878C7.73569 18.1845 7.65999 17.967 7.61046 17.737C7.55655 17.4873 7.53632 17.2381 7.54632 16.9941Z" fill="#768A9E"/>
<path d="M11.3366 11.9814C11.1995 11.747 10.8982 11.6679 10.6636 11.8053L7.63218 13.5789C7.39773 13.716 7.3189 14.0174 7.45609 14.2518L8.11523 15.3784C8.52577 14.8184 9.13452 14.4003 9.8667 14.2425L12.3468 13.7081L11.3366 11.9814Z" fill="#768A9E"/>
</svg>
