<svg width="48" height="48" viewBox="0 0 48 48" fill="none" xmlns="http://www.w3.org/2000/svg">
<path d="M27.5902 33.3165C27.468 34.065 27.2737 34.788 27.012 35.4795L29.3602 37.6073C29.031 38.3003 28.656 38.9663 28.2233 39.5918L25.2083 38.6198C24.7328 39.201 24.2003 39.7328 23.619 40.2083L24.591 43.2233C23.9655 43.656 23.2995 44.0302 22.6065 44.3602L20.4788 42.012C19.7873 42.2737 19.065 42.468 18.3157 42.5902L17.646 45.6923C17.2672 45.7223 16.887 45.75 16.5 45.75C16.113 45.75 15.7328 45.7223 15.3533 45.6923L14.6835 42.5902C13.935 42.468 13.212 42.2737 12.5205 42.012L10.3928 44.3602C9.69975 44.031 9.03375 43.656 8.40825 43.2233L9.38025 40.2083C8.799 39.7328 8.26725 39.2003 7.79175 38.6198L4.77675 39.5918C4.344 38.9663 3.96975 38.3003 3.63975 37.6073L5.988 35.4795C5.72625 34.788 5.532 34.0658 5.40975 33.3165L2.30775 32.6467C2.27775 32.2672 2.25 31.887 2.25 31.5C2.25 31.113 2.27775 30.7328 2.30775 30.3533L5.40975 29.6835C5.532 28.935 5.72625 28.212 5.988 27.5205L3.63975 25.3927C3.969 24.6997 4.344 24.0338 4.77675 23.4083L7.79175 24.3802C8.26725 23.799 8.79975 23.2672 9.381 22.7917L8.409 19.7767C9.0345 19.344 9.7005 18.9698 10.3935 18.6398L12.5212 20.988C13.2127 20.7262 13.935 20.532 14.6843 20.4097L15.354 17.3077C15.7328 17.2777 16.113 17.25 16.5 17.25C16.887 17.25 17.2672 17.2777 17.6467 17.3077L18.3165 20.4097C19.065 20.532 19.788 20.7262 20.4795 20.988L22.6072 18.6398C23.3002 18.969 23.9663 19.344 24.5918 19.7767L23.6198 22.7917C24.201 23.2672 24.7328 23.7997 25.2083 24.381L28.2233 23.409C28.656 24.0345 29.0302 24.7005 29.3602 25.3935L27.012 27.5212C27.2737 28.2127 27.468 28.935 27.5902 29.6842L30.6923 30.354C30.7223 30.7328 30.75 31.113 30.75 31.5C30.75 31.887 30.7223 32.2672 30.6923 32.6467L27.5902 33.3165ZM16.5 24C12.3578 24 9 27.3578 9 31.5C9 35.6422 12.3578 39 16.5 39C20.6422 39 24 35.6422 24 31.5C24 27.3578 20.6422 24 16.5 24V24Z" fill="#0D417B"/>
<path d="M37.9943 12.2288C37.8773 12.6165 37.7243 12.9885 37.536 13.3387L38.7202 15.6083C38.3205 16.1138 37.8645 16.5697 37.359 16.9695L35.0895 15.7853C34.7392 15.9743 34.3672 16.1273 33.9795 16.2435L33.2115 18.6885C32.895 18.726 32.5755 18.75 32.25 18.75C31.9245 18.75 31.605 18.726 31.2893 18.6893L30.5212 16.2443C30.1335 16.128 29.7615 15.9743 29.4113 15.786L27.1417 16.9703C26.6362 16.5705 26.1803 16.1145 25.7805 15.609L26.9647 13.3395C26.7757 12.9892 26.6227 12.6172 26.5065 12.2295L24.0615 11.4615C24.024 11.145 24 10.8255 24 10.5C24 10.1745 24.024 9.855 24.0608 9.53925L26.5057 8.77125C26.622 8.3835 26.7757 8.0115 26.964 7.66125L25.7798 5.39175C26.1795 4.88625 26.6355 4.43025 27.141 4.0305L29.4105 5.21475C29.7608 5.02575 30.1328 4.87275 30.5205 4.7565L31.2885 2.3115C31.605 2.274 31.9245 2.25 32.25 2.25C32.5755 2.25 32.895 2.274 33.2107 2.31075L33.9788 4.75575C34.3665 4.872 34.7385 5.02575 35.0887 5.214L37.3583 4.02975C37.8638 4.4295 38.3197 4.8855 38.7195 5.391L37.5353 7.6605C37.7243 8.01075 37.8773 8.38275 37.9935 8.7705L40.4385 9.5385C40.476 9.855 40.5 10.1745 40.5 10.5C40.5 10.8255 40.476 11.145 40.4392 11.4608L37.9943 12.2288ZM32.25 7.5C30.5932 7.5 29.25 8.84325 29.25 10.5C29.25 12.1568 30.5932 13.5 32.25 13.5C33.9068 13.5 35.25 12.1568 35.25 10.5C35.25 8.84325 33.9068 7.5 32.25 7.5Z" fill="#0D417B"/>
<path d="M44.0542 29.1532C43.9387 29.5695 43.776 29.964 43.5675 30.3323L44.3137 31.9027C43.9747 32.3355 43.5855 32.7247 43.1527 33.0637L41.5823 32.3175C41.2148 32.526 40.8195 32.6887 40.4032 32.8042L39.8197 34.4452C39.5505 34.4782 39.2782 34.5 39 34.5C38.7218 34.5 38.4495 34.4782 38.1803 34.4452L37.5968 32.8042C37.1805 32.6887 36.786 32.526 36.4177 32.3175L34.8473 33.0637C34.4145 32.7247 34.0253 32.3355 33.6863 31.9027L34.4325 30.3323C34.224 29.9648 34.0613 29.5695 33.9458 29.154L32.3048 28.5705C32.2718 28.3005 32.25 28.0282 32.25 27.75C32.25 27.4718 32.2718 27.1995 32.3048 26.9303L33.9458 26.3468C34.0613 25.9305 34.224 25.536 34.4325 25.1685L33.6863 23.598C34.0253 23.1653 34.4145 22.776 34.8473 22.437L36.4177 23.1832C36.7852 22.9747 37.1805 22.812 37.5968 22.6965L38.1803 21.0555C38.4495 21.0217 38.7218 21 39 21C39.2782 21 39.5505 21.0217 39.8197 21.0547L40.4032 22.6957C40.8195 22.8112 41.214 22.974 41.5823 23.1825L43.1527 22.4363C43.5855 22.7753 43.9747 23.1645 44.3137 23.5972L43.5675 25.1677C43.776 25.5352 43.9387 25.9305 44.0542 26.3468L45.6952 26.9303C45.7282 27.1995 45.75 27.4718 45.75 27.75C45.75 28.0282 45.7282 28.3005 45.6952 28.5697L44.0542 29.1532ZM39 25.5C37.7573 25.5 36.75 26.5073 36.75 27.75C36.75 28.9927 37.7573 30 39 30C40.2427 30 41.25 28.9927 41.25 27.75C41.25 26.5073 40.2427 25.5 39 25.5Z" fill="#0D417B"/>
<path d="M45.8964 3.76504L41.4107 2.86804L40.5137 7.35304L41.9844 7.64779L42.3887 5.62879C43.1154 7.14079 43.4994 8.80729 43.4994 10.5C43.4994 13.086 42.6459 15.5175 41.0319 17.5313L42.2027 18.4695C44.0064 16.2188 44.9994 13.389 44.9994 10.5C44.9994 8.53579 44.5457 6.59929 43.6824 4.85179L45.6024 5.23579L45.8964 3.76504Z" fill="#0D417B"/>
<path d="M17.7794 9.96973L16.7189 11.0302L17.7381 12.0495C17.3256 12.0232 16.9124 12 16.4991 12C10.6971 12 5.23562 14.5582 1.51562 19.0192L2.66762 19.98C6.10187 15.8617 11.1426 13.5 16.4991 13.5C16.8809 13.5 17.2619 13.5217 17.6429 13.5457L16.7189 14.4697L17.7794 15.5302L20.5596 12.75L17.7794 9.96973Z" fill="#0D417B"/>
</svg>
