<svg width="48" height="48" viewBox="0 0 48 48" fill="none" xmlns="http://www.w3.org/2000/svg">
<g clip-path="url(#clip0)">
<path d="M18.9702 28.116L15.0053 33.3229C14.9016 33.4589 14.7561 33.5568 14.5912 33.6018L7.95863 35.4138C7.05081 35.6632 6.42059 36.4873 6.41797 37.4289V39.8506C6.41797 41.0025 7.3597 41.9757 8.5116 41.9757H8.99802C9.24278 39.4213 11.5119 37.549 14.0663 37.7937C16.2821 38.006 18.0359 39.76 18.2482 41.9757H32.4061C32.6508 39.4213 34.92 37.549 37.4744 37.7937C39.6901 38.006 41.444 39.76 41.6563 41.9757H42.6205C43.7725 41.9757 44.7014 41.0025 44.7014 39.8506V37.0864C44.702 36.2681 44.225 35.5248 43.4809 35.1844L39.9103 33.5594C39.7715 33.4961 39.6543 33.3934 39.5732 33.264L36.4924 28.3445C35.9383 27.4531 34.962 26.9122 33.9123 26.9149H21.3924C20.4424 26.918 19.5476 27.3617 18.9702 28.116Z" fill="#0D417B"/>
<path d="M10.5312 42.3826C10.5313 44.0904 11.9158 45.4748 13.6236 45.4747C15.3313 45.4746 16.7158 44.0902 16.7157 42.3824C16.7156 40.6746 15.3312 39.2902 13.6234 39.2903C11.9164 39.2922 10.533 40.6756 10.5312 42.3826Z" fill="#0D417B"/>
<path d="M33.9395 42.3826C33.9396 44.0904 35.324 45.4748 37.0318 45.4747C38.7396 45.4746 40.124 44.0902 40.1239 42.3824C40.1238 40.6746 38.7394 39.2903 37.0317 39.2903C35.3246 39.2922 33.9413 40.6756 33.9395 42.3826Z" fill="#0D417B"/>
<path d="M46.44 46.4453H2.33786V6.68765C2.33786 3.83748 4.6678 1.55466 7.51797 1.55466H20.8836C23.4534 1.55038 25.6337 3.43958 25.9953 5.98368C22.8079 6.3945 20.4189 9.10436 20.4107 12.3181V13.0022C20.4147 13.4372 20.7644 13.79 21.1994 13.7976H32.4604C32.893 13.7889 33.2385 13.4349 33.2366 13.0022V12.3181C33.2314 9.06996 30.793 6.34115 27.5658 5.97192C27.1862 2.56898 24.3076 -0.00368834 20.8836 3.96937e-06H7.51797C3.81051 3.96937e-06 0.783203 2.98028 0.783203 6.68765V47.2585C0.783203 47.6878 1.14272 48 1.57171 48H46.44C46.8693 48 47.2174 47.652 47.2174 47.2227C47.2174 46.7934 46.8693 46.4453 46.44 46.4453Z" fill="#0D417B"/>
<path d="M26.8242 18.3049C27.2535 18.3049 27.6015 17.9569 27.6015 17.5276V15.8437C27.6015 15.4145 27.2535 15.0664 26.8242 15.0664C26.3949 15.0664 26.0469 15.4145 26.0469 15.8437V17.5276C26.0469 17.9569 26.3948 18.3049 26.8242 18.3049Z" fill="#0D417B"/>
<path d="M31.584 18.3049C32.0132 18.3049 32.3613 17.9569 32.3613 17.5276V15.8437C32.3613 15.4145 32.0132 15.0664 31.584 15.0664C31.1547 15.0664 30.8066 15.4145 30.8066 15.8437V17.5276C30.8066 17.9569 31.1546 18.3049 31.584 18.3049Z" fill="#0D417B"/>
<path d="M22.0625 18.3049C22.4918 18.3049 22.8398 17.9569 22.8398 17.5276V15.8437C22.8398 15.4145 22.4918 15.0664 22.0625 15.0664C21.6332 15.0664 21.2852 15.4145 21.2852 15.8437V17.5276C21.2852 17.9569 21.6331 18.3049 22.0625 18.3049Z" fill="#0D417B"/>
<path d="M26.0469 22.2636C26.0469 22.6929 26.3949 23.0409 26.8242 23.0409C27.2535 23.0409 27.6015 22.6929 27.6015 22.2636V20.5798C27.6015 20.1505 27.2535 19.8025 26.8242 19.8025C26.3949 19.8025 26.0469 20.1505 26.0469 20.5798V22.2636Z" fill="#0D417B"/>
<path d="M30.8066 22.2636C30.8066 22.6929 31.1547 23.0409 31.584 23.0409C32.0132 23.0409 32.3613 22.6929 32.3613 22.2636V20.5798C32.3613 20.1505 32.0132 19.8025 31.584 19.8025C31.1547 19.8025 30.8066 20.1505 30.8066 20.5798V22.2636Z" fill="#0D417B"/>
<path d="M21.2852 22.2636C21.2852 22.6929 21.6332 23.0409 22.0625 23.0409C22.4918 23.0409 22.8398 22.6929 22.8398 22.2636V20.5798C22.8398 20.1505 22.4918 19.8025 22.0625 19.8025C21.6332 19.8025 21.2852 20.1505 21.2852 20.5798V22.2636Z" fill="#0D417B"/>
</g>
<defs>
<clipPath id="clip0">
<rect width="48" height="48" fill="white"/>
</clipPath>
</defs>
</svg>
