<svg width="48" height="48" viewBox="0 0 48 48" fill="none" xmlns="http://www.w3.org/2000/svg">
<path d="M19.7104 15.8332C19.7104 14.1635 18.3569 12.8099 16.6872 12.8099C15.0176 12.8099 13.6641 14.1635 13.6641 15.8331C13.6641 17.5027 15.0176 18.8562 16.6872 18.8562C18.3561 18.8544 19.7085 17.5021 19.7104 15.8332Z" fill="#0D417B"/>
<path d="M46.8676 8.64335L43.2881 7.00204C43.1282 6.93313 42.9924 6.81813 42.8982 6.67165L39.7751 1.70771C39.2283 0.848043 38.2726 0.335753 37.254 0.356438H24.562C23.6392 0.341936 22.7626 0.759008 22.1917 1.48411L18.1692 6.71673C18.0466 6.87422 17.8761 6.98754 17.6833 7.03937L10.9464 8.87605C10.0685 9.11269 9.45373 9.90232 9.43945 10.8113V13.2665C9.43945 14.3727 10.3984 15.3081 11.5045 15.3081H11.8979C12.1572 13.0886 13.9075 11.3382 16.127 11.079C18.7715 10.7702 21.1657 12.6635 21.4745 15.3081H35.6268C35.8861 13.0886 37.6364 11.3382 39.8559 11.079C42.5004 10.7702 44.8946 12.6635 45.2034 15.3081H46.0811C47.1872 15.3081 47.9989 14.3727 47.9989 13.2665V10.4643C48.0159 9.68681 47.5722 8.97262 46.8676 8.64335Z" fill="#0D417B"/>
<path d="M40.4157 18.8562C42.0846 18.8543 43.437 17.5021 43.4389 15.8332V15.8331C43.4389 14.1635 42.0854 12.8099 40.4157 12.8099C38.7461 12.8099 37.3926 14.1635 37.3926 15.8331C37.3926 17.5027 38.7461 18.8562 40.4157 18.8562Z" fill="#0D417B"/>
<path d="M46.2997 22.7307C45.6063 22.0536 44.6738 21.6775 43.7046 21.6842C42.7335 21.6836 41.8033 22.0745 41.1239 22.7684C38.4956 25.4396 33.9629 30.0149 32.9335 31.0537L24.6577 32.2604L23.1195 30.2143L29.3107 28.3134C31.212 27.7326 32.2826 25.7203 31.7017 23.819C31.1735 22.0895 29.4441 21.0204 27.661 21.3209L14.9308 23.3363C14.0702 23.4632 13.2612 23.8254 12.5932 24.3829L0 36.6183L9.2763 47.644L15.5259 40.7294L32.9518 40.1381C34.0571 40.096 35.1059 39.6387 35.889 38.8575L46.4563 27.8584L46.4675 27.8463C47.8009 26.4234 47.763 24.1987 46.3821 22.8221L46.2997 22.7307Z" fill="#0D417B"/>
</svg>
