<svg width="48" height="48" viewBox="0 0 48 48" fill="none" xmlns="http://www.w3.org/2000/svg">
<path d="M37 14H39C40.6543 14 42 12.6543 42 11V3C42 1.34569 40.6543 0 39 0H37C35.3457 0 34 1.34569 34 3V5.08659L26.7178 5.74847C26.2417 4.71956 25.2064 4.00003 24 4.00003C22.7936 4.00003 21.7583 4.71947 21.2822 5.74847L14 5.08659V3C14 1.34569 12.6543 0 11 0H9C7.34569 0 6 1.34569 6 3V11C6 12.6543 7.34569 14 9 14H11C12.6543 14 14 12.6543 14 11V8.91347L21.2822 8.25159C21.4564 8.62809 21.7073 8.95791 22.0133 9.23072L22.7421 20.052C22.3178 20.1677 21.9998 20.5387 21.9998 21V27C21.9998 27.4442 22.2937 27.8078 22.694 27.9383L22.0148 36.7681C21.3973 37.318 21 38.1098 21 39V39.723L14 39.0865V36.9999C14 35.3456 12.6543 33.9999 11 33.9999H9C7.34569 33.9999 6 35.3456 6 36.9999V45C6 46.6543 7.34569 48 9 48H11C12.6543 48 14 46.6543 14 45V42.9135L21 42.2769V42.9999C21 44.6542 22.3457 45.9999 24 45.9999C25.6543 45.9999 27 44.6542 27 42.9999V42.2769L34 42.9134V45C34 46.6543 35.3457 48 37 48H39C40.6543 48 42 46.6543 42 45V37C42 35.3457 40.6543 34 39 34H37C35.3457 34 34 35.3457 34 37V39.0866L27 39.723V39C27 38.1097 26.6025 37.3177 25.9846 36.7677L25.2989 27.9397C25.7027 27.8112 26 27.4467 26 27.0001V21.0001C26 20.5416 25.6859 20.1718 25.2654 20.0536L25.9868 9.23062C26.2927 8.95781 26.5435 8.62809 26.7177 8.25178L33.9999 8.91366V11.0002C34 12.6543 35.3457 14 37 14Z" fill="#0D417B"/>
</svg>
