<svg width="48" height="48" viewBox="0 0 48 48" fill="none" xmlns="http://www.w3.org/2000/svg">
<path d="M18.75 39H29.25C29.4489 39 29.6397 38.921 29.7803 38.7803C29.921 38.6397 30 38.4489 30 38.25C30 38.0511 29.921 37.8603 29.7803 37.7197C29.6397 37.579 29.4489 37.5 29.25 37.5H18.75C18.5511 37.5 18.3603 37.579 18.2197 37.7197C18.079 37.8603 18 38.0511 18 38.25C18 38.4489 18.079 38.6397 18.2197 38.7803C18.3603 38.921 18.5511 39 18.75 39Z" fill="#0D417B"/>
<path d="M18 32.7367L20.61 36H27.39L30 32.7367V31.5H18V32.7367Z" fill="#0D417B"/>
<path d="M24.75 30V25.5C24.7502 25.3519 24.7941 25.2071 24.876 25.0837L26.25 23.025V21.75H21.75V23.025L23.124 25.086C23.2055 25.2087 23.2493 25.3527 23.25 25.5V30H24.75Z" fill="#0D417B"/>
<path d="M27.4396 43.5H20.5605L22.0605 45H25.9396L27.4396 43.5Z" fill="#0D417B"/>
<path d="M30 41.25C30 41.0511 29.921 40.8603 29.7803 40.7197C29.6397 40.579 29.4489 40.5 29.25 40.5H18.75C18.5511 40.5 18.3603 40.579 18.2197 40.7197C18.079 40.8603 18 41.0511 18 41.25C18 41.4489 18.079 41.6397 18.2197 41.7803C18.3603 41.921 18.5511 42 18.75 42H29.25C29.4489 42 29.6397 41.921 29.7803 41.7803C29.921 41.6397 30 41.4489 30 41.25Z" fill="#0D417B"/>
<path d="M34.5 13.5C34.5 10.7152 33.3938 8.04451 31.4246 6.07538C29.4555 4.10625 26.7848 3 24 3C21.2152 3 18.5445 4.10625 16.5754 6.07538C14.6062 8.04451 13.5 10.7152 13.5 13.5C13.5 15.4942 14.8103 17.7 16.2 20.0317C17.6288 22.4362 19.107 24.9218 19.4955 27.6435C19.4996 27.6788 19.5011 27.7144 19.5 27.75V30H21.75V25.725L20.376 23.664C20.2945 23.5413 20.2507 23.3973 20.25 23.25V21.75H19.5C19.055 21.75 18.62 21.618 18.25 21.3708C17.88 21.1236 17.5916 20.7722 17.4213 20.361C17.251 19.9499 17.2064 19.4975 17.2932 19.061C17.38 18.6246 17.5943 18.2237 17.909 17.909C18.2237 17.5943 18.6246 17.38 19.061 17.2932C19.4975 17.2064 19.9499 17.251 20.361 17.4213C20.7722 17.5916 21.1236 17.88 21.3708 18.25C21.618 18.62 21.75 19.055 21.75 19.5V20.25H26.25V19.5C26.25 19.055 26.382 18.62 26.6292 18.25C26.8764 17.88 27.2278 17.5916 27.639 17.4213C28.0501 17.251 28.5025 17.2064 28.939 17.2932C29.3754 17.38 29.7763 17.5943 30.091 17.909C30.4057 18.2237 30.62 18.6246 30.7068 19.061C30.7936 19.4975 30.749 19.9499 30.5787 20.361C30.4084 20.7722 30.12 21.1236 29.75 21.3708C29.38 21.618 28.945 21.75 28.5 21.75H27.75V23.25C27.7498 23.3981 27.7059 23.5429 27.624 23.6663L26.25 25.725V30H28.5V27.75C28.4999 27.7144 28.5024 27.6788 28.5075 27.6435C28.896 24.9218 30.3742 22.4362 31.803 20.0317C33.1897 17.7 34.5 15.4942 34.5 13.5V13.5ZM24 6V4.5C28.7948 4.5 33 8.35575 33 12.75H31.5C31.5 8.88675 27.5408 6 24 6ZM31.5 14.25H33V15.75H31.5V14.25Z" fill="#0D417B"/>
<path d="M29.25 19.5C29.25 19.3011 29.171 19.1103 29.0303 18.9697C28.8897 18.829 28.6989 18.75 28.5 18.75C28.3011 18.75 28.1103 18.829 27.9697 18.9697C27.829 19.1103 27.75 19.3011 27.75 19.5V20.25H28.5C28.6989 20.25 28.8897 20.171 29.0303 20.0303C29.171 19.8897 29.25 19.6989 29.25 19.5Z" fill="#0D417B"/>
<path d="M18.75 19.5C18.75 19.6989 18.829 19.8897 18.9697 20.0303C19.1103 20.171 19.3011 20.25 19.5 20.25H20.25V19.5C20.25 19.3011 20.171 19.1103 20.0303 18.9697C19.8897 18.829 19.6989 18.75 19.5 18.75C19.3011 18.75 19.1103 18.829 18.9697 18.9697C18.829 19.1103 18.75 19.3011 18.75 19.5Z" fill="#0D417B"/>
<path d="M37.5 12.75H42V14.25H37.5V12.75Z" fill="#0D417B"/>
<path d="M37.0469 9.89246L40.0469 7.64245L40.9464 8.84185L37.9464 11.0919L37.0469 9.89246Z" fill="#0D417B"/>
<path d="M37.0508 17.1L37.9503 15.9006L40.9503 18.1506L40.0508 19.35L37.0508 17.1Z" fill="#0D417B"/>
<path d="M6 12.75H10.5V14.25H6V12.75Z" fill="#0D417B"/>
<path d="M7.05078 8.84998L7.95033 7.65057L10.9503 9.90058L10.0508 11.1L7.05078 8.84998Z" fill="#0D417B"/>
<path d="M7.05078 18.15L10.0508 15.9L10.9503 17.0994L7.95033 19.3494L7.05078 18.15Z" fill="#0D417B"/>
</svg>
