<svg width="48" height="48" viewBox="0 0 48 48" fill="none" xmlns="http://www.w3.org/2000/svg">
<g clip-path="url(#clip0)">
<path d="M27.6074 44.25H25.7324V31.2626C28.3641 30.5828 30.4403 28.5067 31.1201 25.875H41.3887C42.4242 25.875 43.2637 25.0356 43.2637 24V3.75H45.2324C46.268 3.75 47.1074 2.91056 47.1074 1.875C47.1074 0.839438 46.268 0 45.2324 0H37.7324C36.6969 0 35.8574 0.839438 35.8574 1.875C35.8574 2.91056 36.6969 3.75 37.7324 3.75H39.5137V22.125H31.1201C30.4404 19.4933 28.3642 17.4172 25.7324 16.7374V3.75H27.6074C28.643 3.75 29.4824 2.91056 29.4824 1.875C29.4824 0.839438 28.643 0 27.6074 0H20.1074C19.0719 0 18.2324 0.839438 18.2324 1.875C18.2324 2.91056 19.0719 3.75 20.1074 3.75H21.9824V16.7374C19.3508 17.4172 17.2746 19.4933 16.5947 22.125H7.82617V3.75H9.70117C10.7367 3.75 11.5762 2.91056 11.5762 1.875C11.5762 0.839438 10.7367 0 9.70117 0H2.20117C1.16561 0 0.326172 0.839438 0.326172 1.875C0.326172 2.91056 1.16561 3.75 2.20117 3.75H4.07617V44.25H2.20117C1.16561 44.25 0.326172 45.0894 0.326172 46.125C0.326172 47.1606 1.16561 48 2.20117 48H9.70117C10.7367 48 11.5762 47.1606 11.5762 46.125C11.5762 45.0894 10.7367 44.25 9.70117 44.25H7.82617V25.875H16.5947C17.2745 28.5067 19.3507 30.5828 21.9824 31.2626V44.25H20.1074C19.0719 44.25 18.2324 45.0894 18.2324 46.125C18.2324 47.1606 19.0719 48 20.1074 48H27.6074C28.643 48 29.4824 47.1606 29.4824 46.125C29.4824 45.0894 28.643 44.25 27.6074 44.25ZM20.1074 24C20.1074 21.9323 21.7897 20.25 23.8574 20.25C25.9252 20.25 27.6074 21.9323 27.6074 24C27.6074 26.0677 25.9252 27.75 23.8574 27.75C21.7897 27.75 20.1074 26.0677 20.1074 24ZM45.2963 41.0091C46.7319 40.0088 47.6739 38.3472 47.6739 36.4688C47.6739 33.4188 45.1926 30.9375 42.1426 30.9375C38.9871 30.9375 36.4199 33.5047 36.4199 36.6602V46.125C36.4199 47.1606 37.2594 48 38.2949 48C39.3305 48 40.1699 47.1606 40.1699 46.125V42H41.5944L44.0923 46.9657C44.4114 47.5999 45.0605 48 45.7704 48C47.1694 48 48.0775 46.5253 47.4476 45.276L45.2963 41.0091ZM40.1699 36.6602C40.1699 35.5724 41.0548 34.6875 42.1426 34.6875C43.1248 34.6875 43.9239 35.4865 43.9239 36.4688C43.9239 37.451 43.1248 38.25 42.1426 38.25H40.1699V36.6602Z" fill="#0D417B"/>
</g>
<defs>
<clipPath id="clip0">
<rect width="48" height="48" fill="white"/>
</clipPath>
</defs>
</svg>
