<svg width="48" height="48" viewBox="0 0 48 48" fill="none" xmlns="http://www.w3.org/2000/svg">
<path d="M43.8753 28.0337C43.7062 27.6291 43.4943 27.2473 43.246 26.8923C44.4127 26.1409 45.1875 24.8316 45.1875 23.3438C45.1875 21.0176 43.295 19.1251 40.9688 19.1251C38.6425 19.1251 36.75 21.0176 36.75 23.3438C36.75 23.7213 36.8005 24.087 36.894 24.4353C34.9611 24.8765 33.375 26.238 32.6247 28.0338C30.6957 28.0763 29.082 29.4188 28.628 31.2189H26.8151L26.1011 30.148C27.3517 28.8783 28.125 27.1376 28.125 25.2188V23.1662C28.125 19.2891 24.9708 16.1349 21.0938 16.1349H15.3696L7.10287 10.9686H0V32.2501H6.19069C6.12712 31.8216 6.09375 31.3834 6.09375 30.9376C6.09375 26.0267 10.0891 22.0313 15 22.0313C19.9109 22.0313 23.9062 26.0267 23.9062 30.9376C23.9062 31.1496 23.897 31.3594 23.8822 31.5678L23.8125 31.6876L25.3099 34.0313H28.8957C29.5686 35.4696 31.0288 36.4688 32.7188 36.4688C33.6497 36.4688 34.5107 36.1652 35.2091 35.6524C36.1048 36.1705 37.1429 36.4688 38.25 36.4688C39.3571 36.4688 40.3952 36.1706 41.2909 35.6524C41.9894 36.1651 42.8504 36.4688 43.7812 36.4688C46.1075 36.4688 48 34.5763 48 32.2501C48 29.9553 46.1581 28.084 43.8753 28.0337Z" fill="#0D417B"/>
<path d="M15 24.8439C11.6399 24.8439 8.90625 27.5775 8.90625 30.9376C8.90625 34.2977 11.6399 37.0314 15 37.0314C18.3601 37.0314 21.0938 34.2977 21.0938 30.9376C21.0938 27.5775 18.3601 24.8439 15 24.8439Z" fill="#0D417B"/>
</svg>
