<svg width="48" height="48" viewBox="0 0 48 48" fill="none" xmlns="http://www.w3.org/2000/svg">
<g clip-path="url(#clip0)">
<path d="M37.846 20.5385H10.1537L8.49219 27.923H39.5075L37.846 20.5385Z" fill="#0D417B"/>
<path d="M43.8461 6.23083H4.15387C1.86337 6.23083 0 8.09421 0 10.3846V23.7692C0 26.0596 1.86337 27.9231 4.15387 27.9231H5.65387L7.69537 18.85C7.8375 18.2181 8.39859 17.7692 9.04622 17.7692H38.9539C39.6015 17.7692 40.1626 18.2181 40.3047 18.85L42.3462 27.9231H43.8462C46.1366 27.9231 48.0001 26.0597 48.0001 23.7692V10.3846C48 8.09421 46.1366 6.23083 43.8461 6.23083ZM31.3846 15.9231H29.5385C28.7737 15.9231 28.1539 15.3031 28.1539 14.5385C28.1539 13.7739 28.7738 13.1539 29.5385 13.1539H31.3846C32.1493 13.1539 32.7692 13.7739 32.7692 14.5385C32.7692 15.3031 32.1493 15.9231 31.3846 15.9231ZM37.8461 15.9231H36C35.2353 15.9231 34.6154 15.3031 34.6154 14.5385C34.6154 13.7739 35.2354 13.1539 36 13.1539H37.8461C38.6108 13.1539 39.2307 13.7739 39.2307 14.5385C39.2307 15.3031 38.6108 15.9231 37.8461 15.9231Z" fill="#0D417B"/>
<path d="M24.9235 34.2305C24.9235 33.8449 24.9954 33.725 25.1877 33.4046C25.4501 32.9674 25.8466 32.3066 25.8466 31.1539C25.8466 30.3892 25.2266 29.7693 24.462 29.7693C23.6973 29.7693 23.0774 30.3893 23.0774 31.1539C23.0774 31.5395 23.0055 31.6594 22.8132 31.9797C22.5508 32.417 22.1543 33.0777 22.1543 34.2305C22.1543 35.3832 22.5508 36.0441 22.8131 36.4814C23.0054 36.8019 23.0774 36.9218 23.0774 37.3075C23.0774 37.6932 23.0055 37.8133 22.8131 38.1337C22.5508 38.571 22.1543 39.2319 22.1543 40.3846C22.1543 41.1493 22.7743 41.7692 23.5389 41.7692C24.3035 41.7692 24.9235 41.1492 24.9235 40.3846C24.9235 39.9988 24.9954 39.8788 25.1878 39.5585C25.4501 39.1212 25.8466 38.4604 25.8466 37.3075C25.8466 36.1547 25.4501 35.4939 25.1878 35.0566C24.9955 34.7362 24.9235 34.6163 24.9235 34.2305Z" fill="#0D417B"/>
<path d="M17.5387 34.2305C17.5387 33.8449 17.6106 33.725 17.8029 33.4046C18.0653 32.9674 18.4618 32.3066 18.4618 31.1539C18.4618 30.3892 17.8418 29.7693 17.0772 29.7693C16.3126 29.7693 15.6926 30.3893 15.6926 31.1539C15.6926 31.5395 15.6207 31.6594 15.4284 31.9797C15.166 32.417 14.7695 33.0777 14.7695 34.2305C14.7695 35.3832 15.166 36.0441 15.4283 36.4814C15.6206 36.8019 15.6926 36.9218 15.6926 37.3075C15.6926 37.6932 15.6207 37.8133 15.4283 38.1337C15.166 38.571 14.7695 39.2319 14.7695 40.3846C14.7695 41.1493 15.3895 41.7692 16.1541 41.7692C16.9187 41.7692 17.5387 41.1492 17.5387 40.3846C17.5387 39.9988 17.6106 39.8788 17.803 39.5585C18.0653 39.1212 18.4618 38.4604 18.4618 37.3075C18.4618 36.1547 18.0653 35.4939 17.803 35.0566C17.6107 34.7362 17.5387 34.6163 17.5387 34.2305Z" fill="#0D417B"/>
<path d="M32.3082 34.2305C32.3082 33.8449 32.3802 33.725 32.5724 33.4046C32.8348 32.9674 33.2313 32.3066 33.2313 31.1539C33.2313 30.3892 32.6113 29.7693 31.8467 29.7693C31.0821 29.7693 30.4621 30.3893 30.4621 31.1539C30.4621 31.5395 30.3902 31.6594 30.1979 31.9797C29.9355 32.417 29.5391 33.0777 29.5391 34.2305C29.5391 35.3832 29.9355 36.0441 30.1978 36.4814C30.3901 36.8019 30.4621 36.9218 30.4621 37.3075C30.4621 37.6932 30.3902 37.8133 30.1978 38.1337C29.9355 38.571 29.5391 39.2319 29.5391 40.3846C29.5391 41.1493 30.159 41.7692 30.9237 41.7692C31.6883 41.7692 32.3082 41.1492 32.3082 40.3846C32.3082 39.9988 32.3802 39.8788 32.5725 39.5585C32.8348 39.1212 33.2313 38.4604 33.2313 37.3075C33.2313 36.1547 32.8348 35.4939 32.5725 35.0566C32.3802 34.7362 32.3082 34.6163 32.3082 34.2305Z" fill="#0D417B"/>
</g>
<defs>
<clipPath id="clip0">
<rect width="48" height="48" fill="white"/>
</clipPath>
</defs>
</svg>
