<svg width="48" height="48" viewBox="0 0 48 48" fill="none" xmlns="http://www.w3.org/2000/svg">
<g clip-path="url(#clip0)">
<path d="M47.9895 21.134C46.6271 10.3149 37.6824 1.34757 26.8629 0.010135C26.0373 -0.0919587 25.3125 0.591385 25.3125 1.42323V8.68107C32.7094 9.35626 38.6438 15.2906 39.3187 22.6875H46.5767C47.4099 22.6875 48.0937 21.9607 47.9895 21.134Z" fill="#0D417B"/>
<path d="M22.5 17.0625C17.8473 17.0625 14.0625 20.8473 14.0625 25.5C14.0625 30.1527 17.8473 33.9375 22.5 33.9375C27.1527 33.9375 30.9375 30.1527 30.9375 25.5C30.9375 20.8473 27.1527 17.0625 22.5 17.0625ZM22.5 31.125C19.3977 31.125 16.875 28.6023 16.875 25.5C16.875 22.3977 19.3977 19.875 22.5 19.875C25.6023 19.875 28.125 22.3977 28.125 25.5C28.125 28.6023 25.6023 31.125 22.5 31.125Z" fill="#0D417B"/>
<path d="M22.5 22.6875C20.9496 22.6875 19.6875 23.9496 19.6875 25.5C19.6875 27.0504 20.9496 28.3125 22.5 28.3125C24.0504 28.3125 25.3125 27.0504 25.3125 25.5C25.3125 23.9496 24.0504 22.6875 22.5 22.6875Z" fill="#0D417B"/>
<path d="M37.9688 25.5C37.1915 25.5 36.5625 24.871 36.5625 24.0938C36.5625 17.1147 30.8853 11.4375 23.9062 11.4375C23.129 11.4375 22.5 10.8085 22.5 10.0312V3C10.0736 3 0 13.0736 0 25.5C0 37.9264 10.0736 48 22.5 48C34.9264 48 45 37.9264 45 25.5H37.9688ZM10.5677 13.5675C11.1169 13.0183 12.0072 13.0183 12.5564 13.5675C13.1056 14.1167 13.1056 15.007 12.5564 15.5564C12.0072 16.1056 11.1169 16.1056 10.5677 15.5564C10.0183 15.007 10.0183 14.1166 10.5677 13.5675ZM7.03125 26.9062C6.25462 26.9062 5.625 26.2766 5.625 25.5C5.625 24.7232 6.25462 24.0938 7.03125 24.0938C7.80788 24.0938 8.4375 24.7232 8.4375 25.5C8.4375 26.2766 7.80788 26.9062 7.03125 26.9062ZM12.5563 37.4323C12.0071 37.9815 11.1168 37.9815 10.5676 37.4323C10.0183 36.8831 10.0183 35.9928 10.5676 35.4436C11.1168 34.8944 12.0071 34.8944 12.5563 35.4436C13.1055 35.9928 13.1055 36.8832 12.5563 37.4323ZM22.5 42.375C21.7234 42.375 21.0938 41.7454 21.0938 40.9688C21.0938 40.1919 21.7234 39.5625 22.5 39.5625C23.2766 39.5625 23.9062 40.1919 23.9062 40.9688C23.9062 41.7454 23.2766 42.375 22.5 42.375ZM22.5 36.75C16.2968 36.75 11.25 31.7032 11.25 25.5C11.25 19.2968 16.2968 14.25 22.5 14.25C28.7032 14.25 33.75 19.2968 33.75 25.5C33.75 31.7032 28.7032 36.75 22.5 36.75ZM34.4323 37.4323C33.8831 37.9815 32.9928 37.9815 32.4436 37.4323C31.8944 36.8831 31.8944 35.9928 32.4436 35.4436C32.9928 34.8944 33.8831 34.8944 34.4323 35.4436C34.9817 35.9928 34.9817 36.8832 34.4323 37.4323Z" fill="#0D417B"/>
</g>
<defs>
<clipPath id="clip0">
<rect width="48" height="48" fill="white"/>
</clipPath>
</defs>
</svg>
