<svg width="48" height="48" viewBox="0 0 48 48" fill="none" xmlns="http://www.w3.org/2000/svg">
<path d="M40.875 18.9844C40.875 18.6262 40.7383 18.2814 40.4928 18.0205L29.2428 6.06741C28.977 5.78513 28.6065 5.625 28.2188 5.625H14.1562C13.7546 5.625 13.3721 5.79675 13.1052 6.09694L7.48022 12.4251C7.25147 12.6825 7.125 13.0149 7.125 13.3594V38.1562C7.125 39.2357 7.53253 40.2218 8.20181 40.9688C7.53253 41.7157 7.125 42.7018 7.125 43.7812C7.125 46.1075 9.01753 48 11.3438 48H36.6562C38.9825 48 40.875 46.1075 40.875 43.7812C40.875 42.7018 40.4675 41.7157 39.7982 40.9688C40.4676 40.2218 40.875 39.2357 40.875 38.1562V18.9844ZM24 39.5621C21.6738 39.5621 19.7812 37.6696 19.7812 35.3434C19.7812 34.7642 19.9467 33.7089 21.3773 31.2428C22.1 29.997 22.8129 28.9626 22.8429 28.9192C23.1055 28.5391 23.538 28.3121 24 28.3121C24.462 28.3121 24.8945 28.539 25.1571 28.9192C25.1871 28.9626 25.9 29.997 26.6227 31.2428C28.0533 33.709 28.2188 34.7642 28.2188 35.3434C28.2188 37.6696 26.3262 39.5621 24 39.5621V39.5621ZM34.3666 22.9715C33.8227 23.4837 33.1306 23.7364 32.4385 23.7364C31.6901 23.7364 30.9443 23.4397 30.3909 22.8519L23.9323 15.9896C22.8667 14.8581 22.9216 13.0782 24.0518 12.014C25.1847 10.9496 26.9659 11.0033 28.0274 12.1334L34.486 18.9957C35.5517 20.1274 35.4967 21.9071 34.3666 22.9715V22.9715Z" fill="#0D417B"/>
<path d="M22.5938 35.3451C22.5938 36.1189 23.2246 36.7497 24 36.7497C24.775 36.7497 25.4056 36.1195 25.4062 35.3446C25.3942 34.9132 24.8097 33.6882 24.0003 32.3248C23.1902 33.6896 22.6052 34.9151 22.5938 35.3451Z" fill="#0D417B"/>
<path d="M22.5938 0H14.1562C13.3796 0 12.75 0.629625 12.75 1.40625V2.8125H24V1.40625C24 0.629625 23.3704 0 22.5938 0Z" fill="#0D417B"/>
</svg>
