<svg width="48" height="48" viewBox="0 0 48 48" fill="none" xmlns="http://www.w3.org/2000/svg">
<path d="M10.6372 37.6479C13.1756 37.6479 15.2334 35.5901 15.2334 33.0517C15.2334 30.5132 13.1756 28.4554 10.6372 28.4554C8.0988 28.4554 6.04102 30.5132 6.04102 33.0517C6.04102 35.5901 8.0988 37.6479 10.6372 37.6479Z" fill="#0D417B"/>
<path d="M37.5393 26.148C37.7935 25.456 37.9237 24.7246 37.9237 23.9873C37.9226 20.5262 35.1159 17.7215 31.6548 17.7225C30.919 17.7228 30.189 17.8526 29.498 18.1061V29.8679C32.7458 31.0612 36.346 29.3958 37.5393 26.148Z" fill="#0D417B"/>
<path d="M18.4179 12.1095L12.6082 19.7379C12.4643 19.9255 12.2629 20.0606 12.0349 20.1227L2.31419 22.7774C0.95343 23.1498 0.0073743 24.3829 0 25.7935V29.3416C0.0140782 31.0678 1.42257 32.4568 3.14869 32.4469H3.92286C4.24358 28.7383 7.51012 25.9918 11.2187 26.3127C14.4825 26.595 17.0707 29.1832 17.3529 32.4469H27.352V10.324H22.0206C20.6078 10.3285 19.2771 10.9881 18.4179 12.1095Z" fill="#0D417B"/>
<path d="M45.1688 22.1335C44.7016 22.0894 44.3158 21.7502 44.2123 21.2926C43.8813 19.7634 43.2686 18.3093 42.4053 17.0046C42.1426 16.6103 42.17 16.0903 42.4723 15.7255L44.2717 13.5514L42.0831 11.3351L39.9184 13.1283C39.5584 13.4271 39.0462 13.4581 38.6528 13.2048C37.3402 12.3459 35.8828 11.7316 34.3513 11.3917C33.8959 11.2954 33.5553 10.9148 33.5103 10.4514L33.2392 7.64246H29.4962V15.8597C33.9853 14.6683 38.5904 17.3414 39.7818 21.8306C40.9732 26.3197 38.3001 30.9247 33.8109 32.1162C32.3971 32.4914 30.9099 32.4914 29.4961 32.1162V40.3575H33.239L33.5107 37.5361C33.5553 37.071 33.8952 36.688 34.3517 36.5885C35.881 36.2576 37.3354 35.6447 38.6402 34.7814C39.0346 34.5187 39.5546 34.5461 39.9193 34.8484L42.0891 36.645L44.3148 34.4193L42.5182 32.2497C42.2203 31.889 42.1904 31.377 42.4443 30.9841C43.3049 29.6718 43.9212 28.2145 44.2631 26.6826C44.3639 26.2261 44.7475 25.8865 45.2129 25.8417L47.999 25.5707V22.4051L45.1688 22.1335Z" fill="#0D417B"/>
</svg>
