<svg width="24" height="24" viewBox="0 0 24 24" fill="none" xmlns="http://www.w3.org/2000/svg">
<path d="M11.8008 22.8C17.8759 22.8 22.8008 17.8752 22.8008 11.8C22.8008 5.72492 17.8759 0.800049 11.8008 0.800049C5.72565 0.800049 0.800781 5.72492 0.800781 11.8C0.800781 17.8752 5.72565 22.8 11.8008 22.8Z" stroke="#768A9E" stroke-width="1.5"/>
<path d="M6.4668 8.73273C6.4668 8.31496 6.56457 7.93717 6.76013 7.5994C6.95569 7.25273 7.22236 6.97717 7.56013 6.77273C7.9068 6.56829 8.30236 6.46606 8.7468 6.46606C9.1912 6.46606 9.5824 6.56829 9.92013 6.77273C10.2668 6.97717 10.5335 7.25273 10.7201 7.5994C10.9157 7.93717 11.0135 8.31496 11.0135 8.73273C11.0135 9.15046 10.9157 9.53273 10.7201 9.8794C10.5335 10.2171 10.2668 10.4883 9.92013 10.6927C9.5824 10.8971 9.1912 10.9994 8.7468 10.9994C8.30236 10.9994 7.9068 10.8971 7.56013 10.6927C7.22236 10.4883 6.95569 10.2171 6.76013 9.8794C6.56457 9.53273 6.4668 9.15046 6.4668 8.73273ZM14.0401 6.65273H15.4801L9.00013 15.9861H7.57346L14.0401 6.65273ZM7.69346 8.73273C7.69346 9.03496 7.7868 9.29713 7.97346 9.5194C8.16902 9.74166 8.4268 9.85273 8.7468 9.85273C9.0668 9.85273 9.31573 9.74166 9.49346 9.5194C9.68013 9.29713 9.77346 9.03496 9.77346 8.73273C9.77346 8.4305 9.68013 8.17273 9.49346 7.9594C9.31573 7.73717 9.0668 7.62606 8.7468 7.62606C8.4268 7.62606 8.16902 7.73717 7.97346 7.9594C7.7868 8.17273 7.69346 8.4305 7.69346 8.73273ZM12.0401 13.9061C12.0401 13.4883 12.1335 13.1105 12.3201 12.7727C12.5157 12.4261 12.7824 12.1505 13.1201 11.9461C13.4668 11.7417 13.8624 11.6394 14.3068 11.6394C14.7512 11.6394 15.1424 11.7417 15.4801 11.9461C15.8268 12.1505 16.0935 12.4261 16.2801 12.7727C16.4757 13.1105 16.5735 13.4883 16.5735 13.9061C16.5735 14.3238 16.4757 14.7061 16.2801 15.0527C16.0935 15.3905 15.8268 15.6617 15.4801 15.8661C15.1424 16.0705 14.7512 16.1727 14.3068 16.1727C13.8624 16.1727 13.4668 16.0705 13.1201 15.8661C12.7824 15.6617 12.5157 15.3905 12.3201 15.0527C12.1335 14.7061 12.0401 14.3238 12.0401 13.9061ZM13.2668 13.9061C13.2668 14.2083 13.3601 14.4705 13.5468 14.6927C13.7335 14.9061 13.9868 15.0127 14.3068 15.0127C14.6268 15.0127 14.8801 14.9061 15.0668 14.6927C15.2535 14.4705 15.3468 14.2083 15.3468 13.9061C15.3468 13.6038 15.2535 13.3417 15.0668 13.1194C14.8801 12.8971 14.6268 12.7861 14.3068 12.7861C13.9868 12.7861 13.7335 12.8971 13.5468 13.1194C13.3601 13.3417 13.2668 13.6038 13.2668 13.9061Z" fill="#768A9E"/>
</svg>
