<svg width="24" height="24" viewBox="0 0 24 24" fill="none" xmlns="http://www.w3.org/2000/svg">
<g clip-path="url(#clip0)">
<path d="M5.49757 4.75903C9.04089 1.55387 14.3436 1.50486 17.9359 4.43067L15.0885 4.53849C14.721 4.55319 14.4367 4.85704 14.4514 5.22461C14.4661 5.58237 14.7602 5.86172 15.113 5.86172C15.1228 5.86172 15.1277 5.86172 15.1375 5.86172L19.5091 5.69999C19.8669 5.68529 20.1462 5.39614 20.1462 5.03837V4.98937C20.1462 4.97956 20.1462 4.97466 20.1462 4.96486V4.95996L19.9845 0.637412C19.9698 0.269848 19.661 -0.0144011 19.2984 0.000301416C18.9308 0.015004 18.6466 0.318857 18.6613 0.68642L18.7642 3.39659C16.9852 1.94104 14.7945 1.09809 12.4519 0.980471C9.55058 0.833446 6.76199 1.82832 4.61052 3.77886C1.65041 6.45962 0.39579 10.5371 1.33675 14.4186C1.41027 14.7225 1.67981 14.9234 1.97876 14.9234C2.03267 14.9234 2.08168 14.9185 2.13559 14.9038C2.48845 14.8156 2.70899 14.4578 2.62078 14.1049C1.79743 10.694 2.89522 7.11143 5.49757 4.75903Z" fill="#768A9E"/>
<path d="M22.6652 9.58178C22.577 9.22892 22.2192 9.00839 21.8663 9.0966C21.5135 9.18482 21.2929 9.54258 21.3812 9.89544C22.2094 13.3064 21.1067 16.889 18.5044 19.2414C16.6763 20.8929 14.3827 21.7065 12.0989 21.7065C9.91807 21.7065 7.74209 20.9665 5.98759 19.506L8.86929 19.2463C9.23195 19.212 9.5015 18.8934 9.46719 18.5258C9.43289 18.1583 9.11433 17.8936 8.74677 17.9279L4.38991 18.32C4.02725 18.3543 3.7577 18.6729 3.79201 19.0404L4.18407 23.3973C4.21348 23.7403 4.50263 24.0001 4.84079 24.0001C4.86039 24.0001 4.88 24.0001 4.8996 23.9952C5.26226 23.9609 5.53181 23.6423 5.4975 23.2748L5.26226 20.6234C7.04127 22.0643 9.22215 22.9023 11.5501 23.0199C11.7363 23.0297 11.9225 23.0346 12.1038 23.0346C14.8042 23.0346 17.3723 22.0446 19.3914 20.2215C22.3515 17.5408 23.6061 13.4682 22.6652 9.58178Z" fill="#768A9E"/>
<path d="M8.93352 14.2085C8.93352 13.6023 8.4421 13.1108 7.8359 13.1108C7.2297 13.1108 6.73828 13.6023 6.73828 14.2085C6.73828 14.8146 7.2297 15.3061 7.8359 15.3061C8.44181 15.3055 8.93282 14.8144 8.93352 14.2085Z" fill="#768A9E"/>
<path d="M18.7942 11.5979L17.4946 11.0019C17.4365 10.9769 17.3871 10.9351 17.353 10.8819L16.2191 9.07969C16.0206 8.76757 15.6736 8.58157 15.3037 8.58909H10.6956C10.3606 8.58382 10.0423 8.73524 9.83507 8.99851L8.37459 10.8984C8.3301 10.9555 8.26819 10.9967 8.19819 11.0155L5.75221 11.6823C5.43348 11.7682 5.21025 12.055 5.20508 12.3849V13.2764C5.20508 13.6781 5.55324 14.0176 5.95482 14.0176H6.09768C6.1918 13.2118 6.82731 12.5762 7.63313 12.4822C8.59328 12.37 9.46254 13.0574 9.57466 14.0176H14.713C14.8071 13.2118 15.4426 12.5762 16.2484 12.4822C17.2086 12.37 18.0778 13.0574 18.1899 14.0176H18.5087C18.9103 14.0176 19.2049 13.6781 19.2049 13.2764V12.2589C19.211 11.9767 19.05 11.7174 18.7942 11.5979Z" fill="#768A9E"/>
<path d="M16.4512 15.3061C17.0571 15.3055 17.5481 14.8144 17.5488 14.2085C17.5488 13.6023 17.0573 13.1108 16.4512 13.1108C15.8449 13.1108 15.3535 13.6023 15.3535 14.2085C15.3535 14.8146 15.8449 15.3061 16.4512 15.3061Z" fill="#768A9E"/>
</g>
<defs>
<clipPath id="clip0">
<rect width="24" height="24" fill="white"/>
</clipPath>
</defs>
</svg>
